<?xml version="1.0" encoding="utf-8"?>
<!-- Generator: Adobe Illustrator 24.2.0, SVG Export Plug-In . SVG Version: 6.00 Build 0)  -->
<svg version="1.1" id="Layer_1" xmlns="http://www.w3.org/2000/svg" xmlns:xlink="http://www.w3.org/1999/xlink" x="0px" y="0px"
	 viewBox="0 0 80 55" style="enable-background:new 0 0 80 55;" xml:space="preserve">
<style type="text/css">
	.st0{fill:#FFFFFF;}
	.st1{fill:#F7F7F7;}
	.st2{fill:#5BB431;}
</style>
<g>
	<path class="st0" d="M68,25H12c-1.1,0-2-0.9-2-2v0c0-7.1,23.6-8,28-8h4c4.4,0,28,0.9,28,8v0C70,24.1,69.1,25,68,25z"/>
	<path class="st0" d="M69.2,39c-0.6,0.8-1.5,1.4-2.5,1.5c-0.2,0-0.5,0.1-0.7,0.1c-0.8,0-1.6-0.3-2.3-0.7c-0.1-0.1-0.3-0.2-0.5-0.2
		c-0.3,0-0.5,0.1-0.8,0.2c-0.6,0.4-1.4,0.6-2.2,0.6c-0.9,0-1.7-0.3-2.4-0.8c-0.2-0.1-0.3-0.2-0.5-0.2c-0.2,0-0.4,0.1-0.5,0.2
		c-0.7,0.5-1.5,0.8-2.4,0.8c-0.9,0-1.7-0.3-2.4-0.8c-0.2-0.1-0.3-0.2-0.5-0.2c-0.2,0-0.4,0.1-0.5,0.2c-0.7,0.5-1.5,0.8-2.4,0.8
		c-0.9,0-1.7-0.3-2.4-0.8c-0.2-0.1-0.3-0.2-0.5-0.2c-0.2,0-0.4,0.1-0.5,0.2c-0.7,0.5-1.5,0.8-2.4,0.8c-0.9,0-1.7-0.3-2.4-0.8
		c-0.2-0.1-0.3-0.2-0.5-0.2s-0.4,0.1-0.5,0.2c-0.7,0.5-1.5,0.8-2.4,0.8c-0.9,0-1.7-0.3-2.4-0.8c-0.2-0.1-0.3-0.2-0.5-0.2
		c-0.2,0-0.4,0.1-0.5,0.2c-0.7,0.5-1.5,0.8-2.4,0.8c-0.9,0-1.7-0.3-2.4-0.8c-0.2-0.1-0.3-0.2-0.5-0.2c-0.2,0-0.4,0.1-0.5,0.2
		c-0.7,0.5-1.5,0.8-2.4,0.8c-0.9,0-1.7-0.3-2.4-0.8c-0.2-0.1-0.3-0.2-0.5-0.2c-0.2,0-0.4,0.1-0.5,0.2c-0.7,0.5-1.5,0.8-2.4,0.8
		c-0.9,0-1.7-0.3-2.4-0.8c-0.2-0.1-0.3-0.2-0.5-0.2c-0.2,0-0.4,0.1-0.5,0.2c-0.7,0.5-1.5,0.8-2.4,0.8c-1.2,0-2.3-0.5-3.1-1.4
		c0-0.1-0.1-0.1-0.1-0.2c-0.5,0.4-0.8,0.9-0.8,1.6v0c0,4.3,22.1,4.4,24.3,4.4h12c2.2,0,23.7-0.1,23.7-4.4v0
		C70,39.9,69.7,39.4,69.2,39z"/>
	<path class="st1" d="M67.5,24.6L67.5,24.6c-0.1,0-0.1,0.1-0.3,0.1h0.4C67.6,24.6,67.5,24.6,67.5,24.6z"/>
	<path class="st1" d="M12.6,24.9L12.6,24.9c-0.1,0-0.1,0.1-0.2,0.1h0.4C12.7,24.9,12.6,24.9,12.6,24.9z"/>
	<path class="st2" d="M67.4,33.3C67,33.6,66.5,33.8,66,34c-2.1,0.7-5,1-8,1c-3.7,0-6.8-0.6-8.7-1l-0.2,0c0,0-0.1,0-0.2,0
		c-0.1,0-0.2,0-0.2,0c-0.3,0-0.6,0.1-1,0.2C46,34.5,43.2,35,40,35c-3.7,0-6.8-0.6-8.7-1l-0.2,0c0,0-0.1,0-0.2,0c-0.1,0-0.2,0-0.2,0
		c-0.3,0-0.6,0.1-1,0.2C28,34.5,25.2,35,21.9,35c-2.9,0-5.8-0.4-8-1c-0.5-0.2-1-0.4-1.3-0.6c-0.8,0.4-1.4,1.1-1.6,2.1
		C10.7,37.3,12.2,39,14,39c0.7,0,1.3-0.2,1.8-0.6c0.7-0.5,1.6-0.5,2.3,0c0.5,0.4,1.1,0.6,1.8,0.6c0.7,0,1.3-0.2,1.8-0.6
		c0.7-0.5,1.6-0.5,2.3,0c0.5,0.4,1.1,0.6,1.8,0.6c0.7,0,1.3-0.2,1.8-0.6c0.7-0.5,1.6-0.5,2.3,0c0.5,0.4,1.1,0.6,1.8,0.6
		c0.7,0,1.3-0.2,1.8-0.6c0.7-0.5,1.6-0.5,2.3,0c0.5,0.4,1.1,0.6,1.8,0.6c0.7,0,1.3-0.2,1.8-0.6c0.7-0.5,1.6-0.5,2.3,0
		c0.5,0.4,1.1,0.6,1.8,0.6c0.7,0,1.3-0.2,1.8-0.6c0.7-0.5,1.6-0.5,2.3,0c0.5,0.4,1.1,0.6,1.8,0.6c0.7,0,1.3-0.2,1.8-0.6
		c0.7-0.5,1.6-0.5,2.3,0c0.5,0.4,1.1,0.6,1.8,0.6c0.7,0,1.3-0.2,1.8-0.6c0.7-0.5,1.6-0.5,2.3,0c0.5,0.4,1.1,0.6,1.8,0.6
		c0.6,0,1.2-0.2,1.6-0.5c0.7-0.5,1.7-0.6,2.4-0.1c0.6,0.4,1.4,0.7,2.3,0.5c1.2-0.2,2.2-1.2,2.4-2.4C69.2,35.2,68.5,33.9,67.4,33.3z"
		/>
	<path class="st0" d="M59.4,29h7.1c0.8,0,1.5-0.7,1.5-1.5c0-0.8-0.7-1.5-1.5-1.5h-1.3l-1.7,0.9L59.4,29z"/>
	<path class="st0" d="M32.1,26H13.5c-0.8,0-1.5,0.7-1.5,1.5c0,0.8,0.7,1.5,1.5,1.5h26.8l-5.6-2.1L32.1,26z"/>
	<path class="st0" d="M66.6,30h-8.5h-0.7l-4.1,2.1c-0.7,0.4-1.5,0.6-2.3,0.6c-0.6,0-1.2-0.1-1.7-0.3L43,30h-3H21.9h-8.5
		c-0.6,0-1,0.3-1.3,0.7c-0.2,0.4-0.1,0.9,0.3,1.2c0.4,0.3,1.1,0.8,1.9,1c1.8,0.6,4.6,1,7.7,1c3.7,0,6.9-0.7,8.7-1c0.2,0,0.5,0,0.7,0
		c1.8,0.4,5,1,8.7,1s6.9-0.7,8.7-1c0.2,0,0.5,0,0.7,0c1.8,0.4,5,1,8.7,1c3.1,0,5.8-0.4,7.7-1c0.8-0.3,1.5-0.7,1.9-1
		c0.4-0.3,0.5-0.8,0.3-1.2C67.6,30.3,67.1,30,66.6,30z"/>
	<path class="st0" d="M35,26l14.7,5.4c1,0.4,2.2,0.3,3.2-0.2L63,26H35z"/>
</g>
</svg>
