<?xml version="1.0" encoding="utf-8"?>
<!-- Generator: Adobe Illustrator 24.2.0, SVG Export Plug-In . SVG Version: 6.00 Build 0)  -->
<svg version="1.1" id="Layer_1" xmlns="http://www.w3.org/2000/svg" xmlns:xlink="http://www.w3.org/1999/xlink" x="0px" y="0px"
	 viewBox="0 0 80 55" style="enable-background:new 0 0 80 55;" xml:space="preserve">
<style type="text/css">
	.st0{fill:#FFFFFF;}
	.st1{fill:#F7F7F7;}
	.st2{fill:#CCCCCC;}
</style>
<g>
	<path class="st0" d="M68,22.6H12c-1.1,0-2-0.9-2-2l0,0c0-7.1,23.6-8,28-8h4c4.4,0,28,0.9,28,8l0,0C70,21.7,69.1,22.6,68,22.6z"/>
	<path class="st0" d="M69.2,36.6c-0.6,0.8-1.5,1.4-2.5,1.5c-0.2,0-0.5,0.1-0.7,0.1c-0.8,0-1.6-0.3-2.3-0.7c-0.1-0.1-0.3-0.2-0.5-0.2
		c-0.3,0-0.5,0.1-0.8,0.2C61.8,37.9,61,38,60.2,38c-0.9,0-1.7-0.3-2.4-0.8c-0.2-0.1-0.3-0.2-0.5-0.2s-0.4,0.1-0.5,0.2
		c-0.7,0.5-1.5,0.8-2.4,0.8s-1.7-0.3-2.4-0.8c-0.2-0.1-0.3-0.2-0.5-0.2s-0.4,0.1-0.5,0.2c-0.7,0.5-1.5,0.8-2.4,0.8s-1.7-0.3-2.4-0.8
		C46,37.2,45.9,37,45.7,37s-0.4,0.1-0.5,0.2c-0.7,0.5-1.5,0.8-2.4,0.8s-1.7-0.3-2.4-0.8c-0.2-0.1-0.3-0.2-0.5-0.2s-0.4,0.1-0.5,0.2
		C38.7,37.8,37.9,38,37,38s-1.7-0.3-2.4-0.8c-0.2-0.1-0.3-0.2-0.5-0.2s-0.4,0.1-0.5,0.2c-0.7,0.5-1.5,0.8-2.4,0.8s-1.7-0.3-2.4-0.8
		c-0.2-0.1-0.3-0.2-0.5-0.2s-0.4,0.1-0.5,0.2c-0.7,0.5-1.5,0.8-2.4,0.8s-1.7-0.3-2.4-0.8c-0.2-0.1-0.3-0.2-0.5-0.2s-0.4,0.1-0.5,0.2
		c-0.7,0.5-1.5,0.8-2.4,0.8s-1.7-0.3-2.4-0.8C17,37.2,16.9,37,16.7,37s-0.4,0.1-0.5,0.2c-0.7,0.5-1.5,0.8-2.4,0.8
		c-1.2,0-2.3-0.5-3.1-1.4c0-0.1-0.1-0.1-0.1-0.2c-0.5,0.4-0.8,0.9-0.8,1.6l0,0c0,4.3,22.1,4.4,24.3,4.4h12c2.2,0,23.7-0.1,23.7-4.4
		l0,0C70,37.5,69.7,37,69.2,36.6z"/>
	<path class="st1" d="M67.5,22.2L67.5,22.2c-0.1,0-0.1,0.1-0.3,0.1h0.4C67.6,22.2,67.5,22.2,67.5,22.2z"/>
	<path class="st1" d="M12.6,22.5L12.6,22.5c-0.1,0-0.1,0.1-0.2,0.1h0.4C12.7,22.5,12.6,22.5,12.6,22.5z"/>
	<path class="st2" d="M67.4,30.9c-0.4,0.3-0.9,0.5-1.4,0.7c-2.1,0.7-5,1-8,1c-3.7,0-6.8-0.6-8.7-1h-0.2c0,0-0.1,0-0.2,0
		c-0.1,0-0.2,0-0.2,0c-0.3,0-0.6,0.1-1,0.2c-1.7,0.3-4.5,0.8-7.7,0.8c-3.7,0-6.8-0.6-8.7-1h-0.2c0,0-0.1,0-0.2,0s-0.2,0-0.2,0
		c-0.3,0-0.6,0.1-1,0.2c-1.7,0.3-4.5,0.8-7.8,0.8c-2.9,0-5.8-0.4-8-1c-0.5-0.2-1-0.4-1.3-0.6c-0.8,0.4-1.4,1.1-1.6,2.1
		c-0.3,1.8,1.2,3.5,3,3.5c0.7,0,1.3-0.2,1.8-0.6c0.7-0.5,1.6-0.5,2.3,0c0.5,0.4,1.1,0.6,1.8,0.6c0.7,0,1.3-0.2,1.8-0.6
		c0.7-0.5,1.6-0.5,2.3,0c0.5,0.4,1.1,0.6,1.8,0.6c0.7,0,1.3-0.2,1.8-0.6c0.7-0.5,1.6-0.5,2.3,0c0.5,0.4,1.1,0.6,1.8,0.6
		c0.7,0,1.3-0.2,1.8-0.6c0.7-0.5,1.6-0.5,2.3,0c0.5,0.4,1.1,0.6,1.8,0.6s1.3-0.2,1.8-0.6c0.7-0.5,1.6-0.5,2.3,0
		c0.5,0.4,1.1,0.6,1.8,0.6s1.3-0.2,1.8-0.6c0.7-0.5,1.6-0.5,2.3,0c0.5,0.4,1.1,0.6,1.8,0.6s1.3-0.2,1.8-0.6c0.7-0.5,1.6-0.5,2.3,0
		c0.5,0.4,1.1,0.6,1.8,0.6s1.3-0.2,1.8-0.6c0.7-0.5,1.6-0.5,2.3,0c0.5,0.4,1.1,0.6,1.8,0.6c0.6,0,1.2-0.2,1.6-0.5
		c0.7-0.5,1.7-0.6,2.4-0.1c0.6,0.4,1.4,0.7,2.3,0.5c1.2-0.2,2.2-1.2,2.4-2.4C69.2,32.8,68.5,31.5,67.4,30.9z"/>
	<path class="st0" d="M59.4,26.6h7.1c0.8,0,1.5-0.7,1.5-1.5s-0.7-1.5-1.5-1.5h-1.3l-1.7,0.9L59.4,26.6z"/>
	<path class="st0" d="M32.1,23.6H13.5c-0.8,0-1.5,0.7-1.5,1.5s0.7,1.5,1.5,1.5h26.8l-5.6-2.1L32.1,23.6z"/>
	<path class="st0" d="M66.6,27.6h-8.5h-0.7l-4.1,2.1c-0.7,0.4-1.5,0.6-2.3,0.6c-0.6,0-1.2-0.1-1.7-0.3L43,27.6h-3H21.9h-8.5
		c-0.6,0-1,0.3-1.3,0.7c-0.2,0.4-0.1,0.9,0.3,1.2c0.4,0.3,1.1,0.8,1.9,1c1.8,0.6,4.6,1,7.7,1c3.7,0,6.9-0.7,8.7-1c0.2,0,0.5,0,0.7,0
		c1.8,0.4,5,1,8.7,1c3.7,0,6.9-0.7,8.7-1c0.2,0,0.5,0,0.7,0c1.8,0.4,5,1,8.7,1c3.1,0,5.8-0.4,7.7-1c0.8-0.3,1.5-0.7,1.9-1
		s0.5-0.8,0.3-1.2C67.6,27.9,67.1,27.6,66.6,27.6z"/>
	<path class="st0" d="M35,23.6L49.7,29c1,0.4,2.2,0.3,3.2-0.2L63,23.6H35z"/>
</g>
</svg>
