<?xml version="1.0" encoding="utf-8"?>
<!-- Generator: Adobe Illustrator 24.2.0, SVG Export Plug-In . SVG Version: 6.00 Build 0)  -->
<svg version="1.1" id="Layer_1" xmlns="http://www.w3.org/2000/svg" xmlns:xlink="http://www.w3.org/1999/xlink" x="0px" y="0px"
	 viewBox="0 0 80 55" style="enable-background:new 0 0 80 55;" xml:space="preserve">
<style type="text/css">
	.st0{fill:#FFFFFF;}
	.st1{fill:#5BB431;}
</style>
<g>
	<path class="st0" d="M58,12h-5v5c0,1.1-0.9,2-2,2H29c-1.1,0-2-0.9-2-2v-5h-5c-1.1,0-2,0.9-2,2v29c0,1.1,0.9,2,2,2h36
		c1.1,0,2-0.9,2-2V14C60,12.9,59.1,12,58,12z M27,23c1.1,0,2,0.9,2,2c0,1.1-0.9,2-2,2c-1.1,0-2-0.9-2-2C25,23.9,25.9,23,27,23z
		 M27,41c-1.1,0-2-0.9-2-2c0-1.1,0.9-2,2-2c1.1,0,2,0.9,2,2C29,40.1,28.1,41,27,41z M27,34c-1.1,0-2-0.9-2-2c0-1.1,0.9-2,2-2
		c1.1,0,2,0.9,2,2C29,33.1,28.1,34,27,34z M55,41H31v-4h24V41z M55,34H31v-4h24V34z M55,27H31v-4h24V27z"/>
	<path class="st1" d="M29,18h22c0.6,0,1-0.4,1-1v-5v-1c0-0.6-0.4-1-1-1H29c-0.3,0-0.5,0.1-0.7,0.3S28,10.7,28,11v1v5
		c0,0.3,0.1,0.5,0.3,0.7S28.7,18,29,18z"/>
</g>
</svg>
