<?xml version="1.0" encoding="utf-8"?>
<!-- Generator: Adobe Illustrator 24.2.0, SVG Export Plug-In . SVG Version: 6.00 Build 0)  -->
<svg version="1.1" id="Layer_1" xmlns="http://www.w3.org/2000/svg" xmlns:xlink="http://www.w3.org/1999/xlink" x="0px" y="0px"
	 viewBox="0 0 80 55" style="enable-background:new 0 0 80 55;" xml:space="preserve">
<style type="text/css">
	.st0{fill:#FFFFFF;}
	.st1{fill:#CCCCCC;}
</style>
<g>
	<path class="st0" d="M64.7,42.8l-2.5-22c-0.1-1-1-1.8-2-1.8H49v4c0,1.1-0.9,2-2,2s-2-0.9-2-2v-4H35v4c0,1.1-0.9,2-2,2s-2-0.9-2-2
		v-4H19.8c-1,0-1.9,0.8-2,1.8l-2.5,22C15.1,44,16,45,17.2,45h45.5C64,45,64.9,44,64.7,42.8z"/>
	<path class="st0" d="M40,10c-4.4,0-8,3.6-8,8v5c0,0.6,0.4,1,1,1s1-0.4,1-1v-5c0-3.3,2.7-6,6-6s6,2.7,6,6v5c0,0.6,0.4,1,1,1
		s1-0.4,1-1v-5C48,13.6,44.4,10,40,10z"/>
	<g>
		<path class="st1" d="M13.7,40c-0.9,0-1.7-0.2-2.5-0.4c-0.8-0.3-1.4-0.7-1.8-1.2C9.1,38.1,9,37.8,9,37.5s0.1-0.6,0.4-0.9
			c0.2-0.2,0.6-0.4,0.9-0.4c0.3,0,0.6,0.1,0.8,0.3c0.3,0.3,0.8,0.6,1.3,0.7c0.5,0.2,1,0.3,1.5,0.3s0.9-0.1,1.3-0.3s0.6-0.6,0.6-1.1
			c0-0.4-0.2-0.7-0.5-0.9s-0.9-0.4-1.7-0.5c-1.4-0.2-2.5-0.6-3.2-1.2c-0.7-0.6-1.1-1.3-1.1-2.3c0-1.1,0.4-1.9,1.3-2.6s2-1,3.3-1
			c1.4,0,2.5,0.4,3.4,1.1c0.3,0.3,0.5,0.6,0.5,1c0,0.3-0.1,0.6-0.4,0.8c-0.2,0.2-0.5,0.3-0.9,0.3c-0.2,0-0.5-0.1-0.7-0.2
			C15,30.2,14.2,30,13.4,30c-0.5,0-0.9,0.1-1.2,0.3c-0.3,0.2-0.5,0.5-0.5,0.9s0.3,0.7,0.8,1c0.5,0.2,1.3,0.4,2.3,0.6
			c0.5,0.1,1.1,0.3,1.6,0.5c0.5,0.2,1,0.6,1.4,1.1s0.5,1.1,0.5,2c0,1.1-0.4,2-1.3,2.7C16.1,39.6,15,40,13.7,40z"/>
		<path class="st1" d="M23.3,40c-1.3,0-2.4-0.4-3.2-1.2c-0.8-0.8-1.2-1.9-1.2-3.3s0.4-2.4,1.2-3.2c0.8-0.8,1.8-1.2,3.1-1.2
			c0.9,0,1.7,0.3,2.4,1c0.1-0.2,0.2-0.4,0.4-0.6c0.2-0.2,0.5-0.2,0.8-0.2c0.4,0,0.7,0.1,0.9,0.3c0.2,0.2,0.4,0.5,0.4,0.8v6.5
			c0,0.3-0.1,0.6-0.4,0.8c-0.2,0.2-0.6,0.3-0.9,0.3c-0.7,0-1-0.3-1.2-0.8C25,39.7,24.3,40,23.3,40z M23.5,37.6
			c0.6,0,1.1-0.2,1.5-0.6s0.6-0.9,0.6-1.5S25.4,34.4,25,34s-0.9-0.6-1.5-0.6S22.4,33.6,22,34c-0.4,0.4-0.6,0.9-0.6,1.5
			s0.2,1.1,0.6,1.5S22.9,37.6,23.5,37.6z"/>
		<path class="st1" d="M36.3,40c-0.4,0-0.7-0.1-0.9-0.3S35,39.2,35,38.9v-3.5c0-0.7-0.2-1.2-0.5-1.5s-0.7-0.5-1.2-0.5
			s-0.9,0.2-1.2,0.5s-0.5,0.7-0.6,1.1v3.9c0,0.3-0.1,0.6-0.4,0.8c-0.2,0.2-0.5,0.3-0.9,0.3s-0.7-0.1-0.9-0.3
			c-0.2-0.2-0.4-0.5-0.4-0.8v-6.4c0-0.3,0.1-0.6,0.4-0.8c0.2-0.2,0.6-0.3,0.9-0.3s0.6,0.1,0.8,0.2s0.4,0.4,0.4,0.6
			c0.5-0.7,1.3-1,2.4-1c1.1,0,2,0.3,2.7,1c0.7,0.6,1,1.6,1,3v3.9c0,0.3-0.1,0.6-0.4,0.8C36.9,39.9,36.6,40,36.3,40z"/>
		<path class="st1" d="M42.6,40c-1.3,0-2.4-0.4-3.1-1.2c-0.8-0.8-1.2-1.9-1.2-3.3s0.4-2.4,1.2-3.2s1.8-1.2,3.1-1.2
			c0.8,0,1.6,0.3,2.2,0.9v-3.8c0-0.3,0.1-0.6,0.4-0.8c0.2-0.2,0.5-0.3,0.9-0.3s0.7,0.1,0.9,0.3c0.2,0.2,0.4,0.5,0.4,0.8v10.7
			c0,0.3-0.1,0.6-0.4,0.8c-0.2,0.2-0.6,0.3-0.9,0.3c-0.6,0-1-0.3-1.2-0.8C44.2,39.7,43.5,40,42.6,40z M42.8,37.6
			c0.6,0,1.1-0.2,1.4-0.6c0.4-0.4,0.5-0.9,0.5-1.5s-0.2-1.1-0.5-1.5c-0.4-0.4-0.8-0.6-1.4-0.6s-1.1,0.2-1.4,0.6
			c-0.4,0.4-0.5,0.9-0.5,1.5s0.2,1.1,0.5,1.5C41.7,37.4,42.2,37.6,42.8,37.6z"/>
		<path class="st1" d="M49.4,40c-0.4,0-0.7-0.1-1-0.4c-0.3-0.3-0.4-0.6-0.3-1l1.2-9.2c0.1-0.4,0.2-0.8,0.5-1
			c0.3-0.3,0.7-0.4,1.1-0.4c0.8,0,1.4,0.4,1.6,1.1l2,5.7c0.1,0.2,0.2,0.3,0.3,0.3s0.2-0.1,0.3-0.3l2-5.7c0.2-0.7,0.8-1.1,1.6-1.1
			c0.5,0,0.8,0.1,1.1,0.4s0.5,0.6,0.5,1l1.2,9.2c0.1,0.4-0.1,0.7-0.3,1c-0.3,0.3-0.6,0.4-1,0.4s-0.7-0.1-0.9-0.3s-0.4-0.5-0.4-0.8
			l-0.4-6c0-0.2-0.1-0.3-0.2-0.3c-0.1,0-0.2,0.1-0.3,0.3l-1.7,4.7c-0.3,0.7-0.8,1.1-1.5,1.1c-0.3,0-0.5-0.1-0.8-0.3
			s-0.5-0.4-0.6-0.7L51.7,33c-0.1-0.2-0.2-0.3-0.3-0.3s-0.2,0.1-0.2,0.3l-0.5,5.9c0,0.3-0.2,0.6-0.4,0.8C50,39.9,49.7,40,49.4,40z"
			/>
		<path class="st1" d="M66.8,40c-1.3,0-2.4-0.4-3.4-1.2C62.5,38,62,37,62,35.6s0.4-2.5,1.3-3.3s2-1.2,3.4-1.2c0.9,0,1.7,0.2,2.4,0.5
			c0.6,0.3,1.1,0.8,1.4,1.3S71,34,71,34.6c0,1-0.5,1.5-1.4,1.5h-4.9c-0.2,0-0.2,0.1-0.2,0.3c0,0.4,0.2,0.8,0.8,1.1
			c0.5,0.3,1.1,0.4,1.7,0.4c0.4,0,0.8-0.1,1.2-0.2c0.4-0.1,0.7-0.3,1-0.5c0.2-0.1,0.4-0.2,0.6-0.2c0.3,0,0.5,0.1,0.8,0.3
			c0.2,0.2,0.3,0.5,0.3,0.7c0,0.3-0.2,0.7-0.6,1s-0.9,0.5-1.5,0.7C68.1,39.9,67.4,40,66.8,40z M68.3,34.4c0,0,0.1,0,0.2,0
			s0.1-0.1,0.1-0.2c0-0.3-0.2-0.6-0.5-0.8S67.2,33,66.6,33s-1.1,0.1-1.5,0.4s-0.6,0.5-0.6,0.8c0,0.1,0.1,0.2,0.2,0.2H68.3z"/>
	</g>
</g>
</svg>
