<?xml version="1.0" encoding="utf-8"?>
<!-- Generator: Adobe Illustrator 26.0.0, SVG Export Plug-In . SVG Version: 6.00 Build 0)  -->
<svg version="1.1" id="Layer_1" xmlns="http://www.w3.org/2000/svg" xmlns:xlink="http://www.w3.org/1999/xlink" x="0px" y="0px"
	 viewBox="0 0 530 120" style="enable-background:new 0 0 530 120;" xml:space="preserve">
<style type="text/css">
	.st0{fill:#5BB431;}
	.st1{fill:#C8C9CA;}
</style>
<g>
	<g>
		<path class="st0" d="M169.1,82.1c-1.2-4-4-7.4-7.7-9.3c-1.5-0.8-3.2-1.4-4.9-1.7c2.3-1.6,3.6-4.2,3.7-7c0-5.8-2-10.6-5.8-14
			c-3.5-3-7.9-4.6-12.5-4.6c-2.6,0-5.2,0.6-7.6,1.6c-3-0.8-6.3-1.5-9.7-2.2c0.2-0.9,0.4-1.9,0.5-2.8c0.8-6.1-0.3-12.3-3.1-17.7
			c-2.9-5.2-7.2-8.3-12.2-8.9c-10-1.2-19.5,8.8-21.1,22.2c-0.2,1.2-0.2,2.5-0.2,3.7c-1.3,0-2.6,0-3.8,0c-2,0-3.9,0-5.8,0.1
			c0.4-1.6,0.8-3.2,1-4.8c1.6-13.5-5.3-25.4-15.3-26.6s-19.5,8.7-21.1,22.1c-0.5,4.2-0.2,8.6,1,12.7c-3.3,0.6-6.4,1.4-9.4,2.1
			c-2.4-1.1-5-1.6-7.6-1.6c-4.6-0.1-9,1.6-12.5,4.6c-3.8,3.4-5.8,8.3-5.8,14c0,2.9,1.5,5.6,3.9,7.2c-5.5,0.9-10,4.5-12.2,9.5
			c-1.4,3.6-1.3,7.7,0.4,11.2c2.1,4.4,6,7.8,10.7,9.3c3.2,1.1,6.7,1.3,10,0.5c6.6,9.6,30.2,18.3,62.8,18.3s56.2-8.7,62.8-18.3
			c4,0.9,8.3,0.5,12.1-1.2C166.9,96.9,171.1,89,169.1,82.1z M149,98.2c-0.6-0.1-1.1-0.2-1.7-0.4c-0.6-0.2-1.1-0.4-1.6-0.7
			c-1.4-0.7-2.7-1.6-3.7-2.8c-3-3.3-7.6-4.6-11.9-3.6h-0.2c-4.4,0.9-8,4-9.3,8.3c-1.3,4.8-6,8.5-11.7,9.1s-11-2-13.3-6.4
			c-2.2-3.8-6.4-6.2-10.8-6.1h-0.2c-4.5-0.1-8.6,2.2-10.8,6.1c-2.3,4.4-7.6,7-13.3,6.4c-5.6-0.6-10.3-4.2-11.6-9.1
			c-1.4-4.2-5-7.4-9.3-8.2h-0.2c-4.3-1-8.9,0.4-11.9,3.6c-1.1,1.2-2.4,2.2-3.9,2.9c-0.5,0.2-1.1,0.5-1.6,0.6
			c-0.6,0.2-1.1,0.3-1.7,0.4c-2.4,0.4-5,0.2-7.3-0.6c-3.8-1.2-6.9-3.9-8.6-7.4c-1.3-2.6-1.4-5.7-0.3-8.4c2-5,7.6-8,13.4-7.6
			c-1.6,1.3-2.4,3.4-2,5.5c0.5,3.1,4.2,5.6,10.4,7.1c0.7,0.2,1.4,0.3,2.1,0.4l0.5,0.1c1.1,0.2,2.2,0.4,3.4,0.5
			c2.5,0.3,5,0.4,7.5,0.4c3.1,0,6.3-0.2,9.6-0.5c2,2,5.7,3.5,10.7,4.4c3.8,0.6,7.6,1,11.4,0.9c5.4,0,10.9-0.5,16.3-1.4
			c1.6-0.3,3.1-0.5,4.6-0.9c3.8,1.9,7.3,4.2,10.6,6.9c1.1,0.9,2.4,1.4,3.8,1.4c0.2,0,0.5,0,0.7-0.1c1.6-0.2,3-1.1,3.9-2.4
			c1.4-2.1,3-4.1,4.6-6c1.1-0.2,2.2-0.3,3.3-0.5c5-0.8,9.9-1.9,14.8-3.5c1-0.3,2-0.7,3-1c1-0.3,1.7-0.6,2.5-1
			c7.8-3.1,13.3-6.9,15.1-10.6c2,0.1,4,0.6,5.8,1.5c2.9,1.5,5.1,4.1,6,7.2c1.5,5.4-1.8,11.5-7.8,14.2C155.2,98.4,152,98.8,149,98.2
			L149,98.2z M129.9,109.1c-11.9,4.7-28,7.2-45.2,7.2s-33.5-2.6-45.2-7.2c-7.5-2.9-11.9-6.1-14.1-8.8c1.9-0.9,3.5-2.2,4.9-3.7
			c2.2-2.3,5.5-3.3,8.6-2.5l0,0c3.1,0.6,5.7,2.8,6.7,5.8c1.7,6.2,7.6,10.8,14.6,11.6c7,0.8,13.8-2.5,16.7-8.2
			c1.6-2.7,4.6-4.3,7.8-4.2h0.2c3.2-0.1,6.1,1.5,7.8,4.2c2.7,5.1,8.4,8.3,14.7,8.3c0.7,0,1.3,0,2-0.1c7.1-0.8,13-5.4,14.6-11.6
			c1-3,3.6-5.2,6.7-5.8l0.2-0.1c3.1-0.8,6.3,0.2,8.5,2.5c1.3,1.5,2.9,2.8,4.7,3.7C141.9,103,137.5,106.2,129.9,109.1L129.9,109.1z
			 M12.7,64c0-0.1,0-0.1,0-0.2l0,0c0-1.5,0.2-3.1,0.6-4.6c0.3-1.2,0.8-2.4,1.5-3.6s1.6-2.2,2.6-3.1c2.8-2.4,6.4-3.7,10.2-3.7
			c0.5,0,0.9,0,1.4,0.1c1.2,0.1,2.3,0.3,3.5,0.7c0.9,0.3,1.7,0.7,2.5,1.1c3.4,1.9,5.4,5.5,5.3,9.3c0,0.1,0,0.1,0,0.2
			c0.1,0.9,0.9,1.6,1.9,1.5c0.9-0.1,1.6-0.9,1.5-1.7c0.1-4-1.5-7.8-4.5-10.5c2.1-0.5,4.3-1,6.7-1.4c0.3,0.6,0.6,1.2,0.9,1.7
			c0.8,1.5,1.8,2.9,3,4.2c0.4,0.5,0.9,0.9,1.4,1.3c0.5,0.4,1,0.8,1.5,1.2c1.9,1.3,4,2,6.3,2.3c0.5,0.1,1,0.1,1.6,0.1
			c1,0,2.1-0.1,3.1-0.4c0.6,1.6,1.7,3,3.2,4l0.1,0.1c0.9,0.6,2,1.1,3.1,1.4c0.7,0.1,1.3,0.2,2,0.2c0.5,0,1,0,1.6-0.1
			c0.9-0.2,1.6-1.1,1.4-2c0-0.1,0-0.2-0.1-0.3c-0.1-0.3-0.3-0.6-0.6-0.8c-0.4-0.3-0.8-0.4-1.3-0.3c-2.5,0.4-5-0.9-6-3.3
			c-0.2-0.4-0.3-0.9-0.4-1.3c0-0.1,0-0.3,0-0.4c0-0.2,0-0.4,0-0.6c0-0.5,0-1,0.1-1.5l0.1-0.2c0.2-0.5,0.4-1,0.7-1.5
			c0.1-0.1,0.1-0.2,0.2-0.3c0.9-1.1,2.1-1.8,3.4-2l0,0c0.7-0.1,1.4-0.1,2.1,0.1c0.6,0.1,1.1,0.4,1.7,0.7c0.6,0.4,1.1,0.8,1.6,1.4
			c0.4,0.5,0.7,1.1,0.9,1.7c0.1,0.2,0.1,0.4,0.2,0.7c0.1,0.4,0.3,0.8,0.7,1.1l0,0c0.4,0.3,0.8,0.4,1.3,0.3c0.3,0,0.5-0.2,0.7-0.3
			c0.5-0.4,0.8-1,0.7-1.7l0,0c-0.4-2.5-2-4.8-4.2-6.1c0.4-0.8,0.8-1.7,1.2-2.6c2.3-0.1,4.6-0.1,7-0.1c1.4,0,2.7,0,4,0
			c0.2,2.5,0.8,4.9,1.7,7.2c0.2,0.6,0.5,1.2,0.7,1.7c0.2,0.5,0.5,1,0.8,1.6l0.1,0.2c2.9,5,7.2,8.1,12.1,8.7c0.5,0.1,1.1,0.1,1.6,0.1
			c5.3,0,10.3-3,13.9-7.9c0.4-0.5,0.7-1,1-1.5c0.3-0.5,0.6-1,0.9-1.5c0.9-1.7,1.7-3.4,2.3-5.3c2.3,0.5,4.5,0.9,6.6,1.4
			c-1.7,1.6-3,3.5-3.7,5.8c-0.2,0.6-0.3,1.1-0.4,1.7c-0.1,0.6-0.2,1.2-0.2,1.8c0,0.4-0.1,0.8-0.1,1.3c0,1,0.8,1.7,1.8,1.7
			c0.8,0,1.5-0.6,1.7-1.5v-0.1c0,0,0-0.1,0-0.2c0-0.6,0-1.1,0.1-1.7c0.1-0.6,0.2-1.2,0.4-1.7c0.8-2.5,2.5-4.7,4.8-6
			c0.8-0.5,1.6-0.8,2.5-1.1c1.1-0.4,2.3-0.6,3.5-0.7c0.5,0,0.9-0.1,1.4-0.1c3.7,0,7.4,1.3,10.2,3.7c1,0.9,1.9,2,2.5,3.1
			c0.7,1.1,1.2,2.3,1.5,3.5c0.4,1.5,0.6,3,0.6,4.6l0,0c0,0.1,0,0.1,0,0.2c0,1.9-1,3.5-2.9,4.8c-0.5,0.3-1,0.6-1.5,0.9
			c-0.5,0.3-1,0.5-1.6,0.8c-1.5,0.6-3,1.1-4.5,1.5c-1.2,0.3-2.5,0.6-3.9,0.9c-2.8,0.5-5.9,0.9-9.3,1.3c-3.2,0.3-6.6,0.6-10.3,0.7
			l-1.9,0.1l-2,0.1c-7.3,0.3-15.2,0.4-23.2,0.4H80.7h-9.4c-2.8,0-5.5,0-8.2-0.1c-2.1,0-4.1-0.1-6.1-0.1h-1.2
			c-3.6-0.1-7-0.2-10.4-0.4l-1.8-0.1c-5.2-0.3-10.3-0.8-15.4-1.6c-1.3-0.2-2.5-0.4-3.6-0.7s-2-0.5-2.9-0.7
			C16.1,69.9,12.7,67.6,12.7,64z M64.1,13.7c8.2,1,13.7,11.2,12.3,22.8c-0.2,1.8-0.6,3.6-1.2,5.3c-0.2,0.6-0.4,1.2-0.6,1.7
			c-0.2,0.5-0.5,1.2-0.8,1.8c-0.2,0.4-0.4,0.8-0.6,1.2c-3.4-0.5-6.8,0.9-8.8,3.7c-0.4,0.5-0.7,1.1-0.9,1.7c-0.2,0.6-0.4,1.1-0.5,1.7
			c-0.2,0.6-0.2,1.2-0.2,1.7v0.1c-1.2,0.3-2.5,0.4-3.7,0.2c-0.6-0.1-1.1-0.2-1.7-0.4c-1.3-0.4-2.5-1-3.6-1.8c-0.7-0.5-1.4-1.1-2-1.8
			c-0.9-1-1.7-2.1-2.3-3.3c-0.1-0.2-0.2-0.5-0.3-0.7c-0.3-0.5-0.5-1.1-0.7-1.6c0-0.1-0.1-0.2-0.1-0.3l0.2,0.2c0.5,0.5,1,1,1.5,1.5
			c1.3,1.1,2.8,1.7,4.5,1.9c3.1,0.4,6.1-1,8.5-3.6c0.6-0.6,1.1-1.2,1.5-1.9c0.4-0.6,0.8-1.2,1.1-1.8c0.5-1,0.9-2,1.3-3l-6.4-5.3
			l7.2-3.5c-0.7-6.4-4.4-11.4-9.5-12c-2.5-0.3-5.1,0.5-7,2.2c3-4.4,7.2-7,11.6-7C63.2,13.6,63.6,13.6,64.1,13.7z M109.4,19
			c3.9,0.5,7.3,3,9.6,7.2c2.5,4.8,3.4,10.2,2.7,15.6c-0.1,0.9-0.3,1.8-0.4,2.6c-0.1,0.6-0.3,1.1-0.4,1.7c-0.2,0.6-0.3,1.1-0.5,1.7
			c-0.6,1.7-1.3,3.3-2.2,4.9c-0.3,0.6-0.7,1.2-1.1,1.7c-0.4,0.6-0.9,1.2-1.4,1.7c-2.8,3.2-6.3,5.1-10,5.1c-0.4,0-0.8,0-1.3-0.1
			c-3.4-0.5-6.4-2.4-8.3-5.2c-0.4-0.6-0.8-1.1-1.1-1.7l-0.1-0.2c-0.3-0.5-0.5-1-0.8-1.6c-0.2-0.3-0.3-0.7-0.4-1
			c0.3,0.3,0.6,0.7,0.9,1c0.7,0.7,1.5,1.3,2.4,1.8c0.9,0.5,1.9,0.8,2.9,0.9c1.6,0.2,3.3-0.1,4.7-0.8c0.9-0.4,1.8-1,2.6-1.7
			c1.9-1.6,3.3-3.7,4.3-6c0.2-0.5,0.4-1.1,0.6-1.7l0.1-0.2l-2.1-1.8l-4.2-3.5l7.2-3.5c-0.7-6.4-4.4-11.4-9.4-12
			c-2.5-0.3-5.1,0.5-7,2.2c3-4.4,7.2-7,11.6-7C108.5,18.9,108.9,18.9,109.4,19z M149.5,74.8c-2.6,2.6-8,5.8-16.2,8.5
			c-1.1,0.4-2.3,0.7-3.5,1.1c-1.4,0.4-2.9,0.8-4.4,1.1c-1.9,0.4-3.9,0.8-5.9,1.2c0.6-0.5,1.2-1.1,1.8-1.6c0.6-0.5,1.3-1,1.9-1.5
			c0.7-0.5,1.4-1,2.1-1.5c0.6-0.4,1.1-0.8,1.7-1.1c1.9-1.2,3.9-2.2,5.9-3.1l0.9-0.4l1-0.1l2.3-0.3c4.3-0.5,8.6-1.3,12.8-2.6
			C149.7,74.6,149.6,74.7,149.5,74.8L149.5,74.8z M112.1,89.4c-0.5,0.6-1,1.3-1.5,1.9c-1,1.3-1.9,2.5-2.6,3.5
			c-0.3,0.5-0.9,0.8-1.5,0.9c-0.7,0.1-1.3-0.1-1.8-0.6c-1.5-1.3-3.1-2.5-4.8-3.6c-1-0.6-2-1.3-3-1.9l0,0c-0.7-0.4-1.4-0.8-2.2-1.2
			c-0.7-0.4-1.3-0.7-2-1l-0.4-0.2c-1.4-0.7-2.8-1.3-4.3-2c-0.9-0.4-1.7-0.8-2.6-1.1l-1.3-0.5l-1.8-0.7L81,82.4l-0.5-0.2l-1.4-0.5
			l-0.4-0.1L76.9,81l-0.8-0.3l-1.7-0.6c-0.9-0.3-1.8-0.6-2.7-0.8l-2-0.6h3.5h12c10.1,0,20.4,0,29.9-0.3c1,0,2-0.1,3-0.1l2.6-0.1
			l2.3-0.1l2.1-0.1c-1.1,0.7-2.1,1.4-3.1,2.1c-0.6,0.4-1.2,0.9-1.8,1.3l-1.1,0.9l-0.8,0.7c-0.6,0.5-1.2,1.1-1.8,1.6
			c-1,0.9-1.9,1.9-2.7,2.8C113.2,88.1,112.6,88.7,112.1,89.4L112.1,89.4z M84.1,88.6c-9,1.3-17.5,1.3-24.1,0.1
			c-2.1-0.3-4.1-0.9-6-1.7l1.3-0.2c3.8-0.6,7.5-1.4,11.3-2.4l0.9-0.3c1.2-0.3,2.4-0.7,3.5-1.1l0.6-0.2l1,0.3
			c0.9,0.3,1.8,0.6,2.8,0.9c0.9,0.3,2,0.7,2.9,1l1.7,0.6c2.2,0.8,4.3,1.7,6.4,2.6C85.6,88.5,84.8,88.5,84.1,88.6L84.1,88.6z
			 M28.5,84c-6.3-1.2-9.4-3.2-9.7-4.6c-0.2-1.4,1-2.8,3.2-4l0.3-0.1c3.3,0.8,6.7,1.4,10.1,1.8l2.7,0.3c3.6,0.4,7.6,0.7,11.8,0.9
			c1.1,0.1,2.3,0.1,3.4,0.2l3.2,0.1h2l1.4,0.4c2.3,0.6,4.8,1.2,7.5,1.9h0.2l1.3,0.4c-1.4,0.4-2.8,0.7-4.3,1.1l-2.1,0.4
			c-1,0.2-2,0.4-3.1,0.6l-1.2,0.2c-1.5,0.2-3,0.4-4.4,0.6L49,84.4l-1.7,0.2c-3.4,0.3-6.8,0.4-10.1,0.3c-1.9-0.1-3.7-0.2-5.4-0.4
			C30.5,84.3,29.5,84.2,28.5,84z"/>
		<path class="st0" d="M57.2,5.3c1-0.6,2.1-1,3.2-1.3c2.4-0.7,5-0.6,7.4,0.3c0.9,0.4,1.7,0.9,2.5,1.5C70.6,6,71,6.2,71.4,6.2
			c0.9,0,1.7-0.7,1.8-1.7c0-0.5-0.2-1.1-0.7-1.4c-7.8-6.3-16.7-1-17-0.8c-0.8,0.5-1,1.6-0.5,2.4C55.5,5.5,56.5,5.8,57.2,5.3
			L57.2,5.3z"/>
		<path class="st0" d="M106.8,10.1c1.1-0.4,2.2-0.6,3.4-0.7c2.5-0.3,5,0.3,7.2,1.6c0.8,0.5,1.6,1.2,2.2,1.9c0.3,0.4,0.8,0.6,1.3,0.6
			c0.4,0,0.8-0.2,1.1-0.4c0.7-0.6,0.8-1.7,0.2-2.4l0,0c-6.6-7.6-16.2-4-16.6-3.8c-0.9,0.4-1.3,1.4-1,2.2
			C104.9,10,105.9,10.4,106.8,10.1L106.8,10.1z"/>
	</g>
	<g>
		<g>
			<path class="st0" d="M203.7,90c-5.1,0-9.9-0.9-14.3-2.6c-4.4-1.7-7.9-4-10.5-6.9c-1.2-1.3-1.8-2.9-1.8-4.7c0-1.9,0.7-3.6,2.2-5
				c1.4-1.4,3.2-2.2,5.2-2.2c1.9,0,3.5,0.7,4.8,2c1.9,1.8,4.3,3.2,7.2,4.2c2.9,1,5.7,1.5,8.5,1.5c2.9,0,5.4-0.6,7.5-1.9
				c2.1-1.3,3.2-3.3,3.2-6.1c0-2.3-1-4.1-2.9-5.4c-1.9-1.3-5.2-2.3-9.7-3.1c-8.1-1.3-14.2-3.6-18.3-6.8c-4.1-3.2-6.2-7.6-6.2-13.4
				c0-6.2,2.4-11.2,7.2-14.9c4.8-3.7,11.1-5.6,18.8-5.6c8,0,14.4,2.1,19.2,6.2c1.9,1.6,2.8,3.4,2.8,5.5c0,1.8-0.7,3.3-2.1,4.6
				c-1.4,1.3-3,1.9-4.9,1.9c-1.4,0-2.8-0.4-4-1.2c-4.2-2.7-8.7-4-13.3-4c-2.8,0-5.1,0.6-7,1.7c-1.9,1.1-2.8,2.8-2.8,5
				c0,2.3,1.5,4.2,4.4,5.5c2.9,1.3,7.3,2.6,12.9,3.7c3.1,0.6,6.2,1.5,9.3,2.9c3.1,1.4,5.6,3.5,7.7,6.2c2.1,2.8,3.1,6.6,3.1,11.3
				c0,6.3-2.4,11.5-7.2,15.5C217.5,88,211.3,90,203.7,90z"/>
			<path class="st0" d="M258.7,90c-7.4,0-13.5-2.4-18.1-7.1c-4.6-4.7-6.9-11-6.9-18.9c0-7.9,2.3-14.1,6.8-18.7
				c4.5-4.6,10.4-6.9,17.8-6.9c5.2,0,9.8,1.8,13.7,5.5c0.4-1.3,1.3-2.4,2.5-3.3c1.2-0.9,2.7-1.3,4.3-1.3c2.2,0,4,0.6,5.4,1.9
				c1.4,1.3,2.1,2.8,2.1,4.6v37.8c0,1.9-0.7,3.4-2.1,4.7c-1.4,1.2-3.2,1.8-5.4,1.8c-3.7,0-5.9-1.6-6.8-4.8
				C268.4,88.4,264,90,258.7,90z M259.9,76.5c3.6,0,6.4-1.2,8.5-3.6c2.1-2.4,3.2-5.4,3.2-8.9c0-3.7-1.1-6.6-3.2-8.8
				c-2.1-2.2-4.9-3.3-8.5-3.3c-3.4,0-6.2,1.1-8.4,3.3c-2.2,2.2-3.3,5.2-3.3,8.8c0,3.6,1.1,6.5,3.3,8.9
				C253.7,75.3,256.5,76.5,259.9,76.5z"/>
			<path class="st0" d="M332.3,90c-2.1,0-3.9-0.6-5.2-1.8c-1.4-1.2-2.1-2.8-2.1-4.7V63.2c0-4.1-0.9-7.1-2.7-8.8
				c-1.8-1.8-4.1-2.7-6.7-2.7c-2.8,0-5.1,0.9-6.9,2.7c-1.8,1.8-3,3.8-3.4,6.2v22.3c0,1.9-0.7,3.5-2.1,4.7c-1.4,1.3-3.1,1.9-5.1,1.9
				c-2.1,0-3.9-0.6-5.3-1.8c-1.4-1.2-2.2-2.8-2.2-4.7V45.7c0-1.8,0.7-3.3,2.1-4.6c1.4-1.3,3.2-1.9,5.4-1.9c1.8,0,3.3,0.5,4.5,1.4
				c1.2,0.9,2.1,2.1,2.5,3.6c3-3.9,7.6-5.8,13.7-5.8c6.2,0,11.3,1.8,15.2,5.5c3.9,3.7,5.8,9.5,5.8,17.5v22.5c0,1.8-0.7,3.3-2.1,4.4
				C336.1,89.4,334.4,90,332.3,90z"/>
			<path class="st0" d="M368.4,90c-7.4,0-13.4-2.4-17.9-7.1c-4.5-4.7-6.7-11-6.7-18.9c0-7.9,2.2-14.1,6.6-18.7
				c4.4-4.6,10.2-6.9,17.6-6.9c4.8,0,9.1,1.7,12.8,5.2V21.7c0-1.9,0.7-3.5,2-4.8c1.3-1.3,3.1-1.9,5.2-1.9c2.2,0,4,0.6,5.4,1.9
				c1.4,1.3,2.1,2.8,2.1,4.6v62c0,1.9-0.7,3.4-2.1,4.7c-1.4,1.2-3.2,1.8-5.4,1.8c-3.6,0-5.8-1.6-6.8-4.7
				C377.7,88.4,373.4,90,368.4,90z M369.6,76.5c3.3,0,6-1.2,8.1-3.6c2.1-2.4,3.1-5.4,3.1-8.9c0-3.7-1-6.6-3.1-8.8
				c-2.1-2.2-4.7-3.3-8.1-3.3c-3.4,0-6.2,1.1-8.2,3.3c-2.1,2.2-3.1,5.2-3.1,8.8c0,3.6,1,6.5,3.1,8.9
				C363.4,75.3,366.2,76.5,369.6,76.5z"/>
			<path class="st0" d="M407,90c-2.2,0-4.1-0.8-5.6-2.5c-1.5-1.7-2.1-3.6-1.7-5.8l7-53.5c0.3-2.4,1.3-4.4,3-5.9
				c1.7-1.5,3.7-2.3,6-2.3c4.8,0,7.9,2.1,9.3,6.2l11.3,32.7c0.6,1.1,1.1,1.7,1.7,1.7c0.8,0,1.3-0.6,1.7-1.7L451,26.2
				c1.4-4.1,4.5-6.2,9.2-6.2c2.6,0,4.6,0.8,6.2,2.3c1.6,1.5,2.6,3.5,2.9,5.9l7,53.5c0.3,2.2-0.3,4.2-1.8,5.8
				c-1.5,1.7-3.4,2.5-5.6,2.5c-2,0-3.7-0.6-5.1-1.9c-1.4-1.3-2.2-2.9-2.4-4.9L459,48.3c-0.1-1.3-0.6-2-1.3-2c-0.8,0-1.3,0.6-1.7,1.7
				l-9.7,27.2c-1.6,4.1-4.3,6.2-8.3,6.2c-1.6,0-3.1-0.6-4.6-1.7c-1.5-1.1-2.7-2.6-3.6-4.3l-9.7-27c-0.3-1-0.9-1.5-1.7-1.5
				c-0.7,0-1.1,0.7-1.3,2l-2.7,34.3c-0.1,2-0.9,3.6-2.3,4.9C410.7,89.4,409,90,407,90z"/>
			<path class="st0" d="M506,90c-7.6,0-13.9-2.3-19.1-6.8c-5.2-4.5-7.8-10.7-7.8-18.6c0-8.2,2.5-14.7,7.6-19.3
				c5.1-4.7,11.4-7,19.1-7c5.4,0,9.9,1,13.5,3c3.6,2,6.2,4.6,8,7.7c1.8,3.1,2.7,6.4,2.7,9.8c0,5.8-2.6,8.7-7.7,8.7h-27.7
				c-0.9,0-1.3,0.6-1.3,1.7c0,2.6,1.4,4.6,4.3,6.1c2.8,1.5,6,2.3,9.6,2.3c2.2,0,4.4-0.3,6.7-0.9c2.2-0.6,4.2-1.5,5.8-2.7
				c1.1-0.8,2.3-1.2,3.5-1.2c1.7,0,3.1,0.6,4.3,1.8c1.2,1.2,1.8,2.7,1.8,4.3c0,2-1.1,3.9-3.2,5.7c-2,1.7-4.9,3-8.7,4
				C513.4,89.5,509.7,90,506,90z M514.7,57.8c0.2,0,0.5-0.1,0.9-0.2c0.4-0.1,0.6-0.5,0.6-1.2c0-1.7-1-3.2-3.1-4.6
				c-2.1-1.4-4.7-2.1-7.9-2.1c-3.4,0-6.2,0.8-8.4,2.3c-2.2,1.5-3.2,3-3.2,4.6c0,0.8,0.4,1.2,1.3,1.2H514.7z"/>
		</g>
		<g>
			<path class="st1" d="M198.2,104.1v4.3h6.1v1h-6.1v5.3h-1.1v-11.6h8v1H198.2z"/>
			<path class="st1" d="M215.3,107.2c0.7,0.9,1.1,1.9,1.1,3.2c0,1.3-0.4,2.3-1.1,3.2c-0.7,0.9-1.8,1.3-3,1.3c-1.3,0-2.3-0.4-3-1.3
				c-0.7-0.9-1.1-1.9-1.1-3.2c0-1.3,0.4-2.4,1.1-3.2c0.7-0.9,1.7-1.3,3-1.3C213.6,106,214.6,106.4,215.3,107.2z M214.4,113
				c0.5-0.7,0.8-1.5,0.8-2.5c0-1-0.3-1.9-0.8-2.5c-0.5-0.7-1.2-1-2.1-1c-0.9,0-1.6,0.3-2.1,1c-0.5,0.7-0.8,1.5-0.8,2.5
				c0,1,0.3,1.8,0.8,2.5c0.5,0.7,1.2,1,2.1,1C213.2,114,213.9,113.7,214.4,113z"/>
			<path class="st1" d="M223.8,107.1c-0.2,0-0.5,0-0.8,0.1c-0.3,0-0.6,0.1-0.8,0.3c-0.5,0.3-0.9,0.6-1.1,1.1c-0.2,0.4-0.4,1-0.4,1.7
				v4.4h-1.1v-8.4h1.1v1.3l0.1,0c0.2-0.3,0.4-0.5,0.6-0.8c0.2-0.2,0.5-0.4,0.8-0.5c0.3-0.1,0.6-0.2,0.9-0.3c0.3,0,0.6-0.1,0.7-0.1
				V107.1z"/>
			<path class="st1" d="M233.3,107.1v5.4c0,0.2,0,0.4,0,0.6c0,0.1,0.1,0.3,0.2,0.4c0.1,0.1,0.3,0.2,0.5,0.2c0.2,0,0.3,0,0.5,0v0.9
				h-0.9c-0.2,0-0.5-0.1-0.6-0.2c-0.2-0.1-0.3-0.3-0.5-0.4s-0.2-0.3-0.2-0.5c0-0.2,0-0.5,0-0.8v-5.6h-1.1v-0.9h1.1v-2.6h1.1v2.6h1.2
				v0.9H233.3z"/>
			<path class="st1" d="M243.8,114.7v-5.3c0-0.8-0.2-1.3-0.6-1.7c-0.4-0.4-0.9-0.6-1.6-0.6c-0.8,0-1.4,0.3-2,0.8
				c-0.5,0.5-0.8,1.1-0.8,1.6v5.2h-1.1v-11.6h1.1v4.3c0.4-0.4,0.8-0.8,1.3-1.1c0.5-0.3,1.2-0.4,2-0.4c0.9,0,1.6,0.4,2.1,1
				c0.5,0.6,0.7,1.3,0.7,2v5.7H243.8z"/>
			<path class="st1" d="M255.2,107.2c0.7,0.9,1.1,1.9,1.1,3.2c0,1.3-0.4,2.3-1.1,3.2c-0.7,0.9-1.8,1.3-3,1.3c-1.3,0-2.3-0.4-3-1.3
				c-0.7-0.9-1.1-1.9-1.1-3.2c0-1.3,0.4-2.4,1.1-3.2c0.7-0.9,1.7-1.3,3-1.3C253.4,106,254.4,106.4,255.2,107.2z M254.3,113
				c0.5-0.7,0.8-1.5,0.8-2.5c0-1-0.3-1.9-0.8-2.5c-0.5-0.7-1.2-1-2.1-1c-0.9,0-1.6,0.3-2.1,1c-0.5,0.7-0.8,1.5-0.8,2.5
				c0,1,0.3,1.8,0.8,2.5c0.5,0.7,1.2,1,2.1,1C253,114,253.7,113.7,254.3,113z"/>
			<path class="st1" d="M266.2,111.1c0.4,0.3,0.5,0.8,0.5,1.3c-0.1,0.7-0.4,1.3-1,1.8c-0.6,0.5-1.4,0.8-2.4,0.8c-1.5,0-2.5-0.3-3-1
				c-0.5-0.7-0.8-1.4-0.8-1.9h1.1c0,0.6,0.3,1.1,0.8,1.4c0.5,0.3,1.1,0.5,1.8,0.5c0.6,0,1.1-0.1,1.6-0.4c0.5-0.2,0.7-0.6,0.8-1.1
				c0.1-0.4-0.1-0.7-0.3-0.9s-0.6-0.4-1-0.6c-0.4-0.2-0.9-0.3-1.4-0.4c-0.5-0.1-0.9-0.2-1.3-0.3c-0.5-0.2-0.9-0.4-1.3-0.7
				c-0.4-0.3-0.5-0.8-0.5-1.3c0-0.6,0.3-1.2,0.9-1.7c0.6-0.5,1.4-0.8,2.4-0.8c1.2,0,2,0.3,2.6,0.9s0.8,1.2,0.8,1.8h-1.1
				c0-0.4-0.2-0.8-0.5-1.1c-0.4-0.4-0.9-0.6-1.7-0.6c-0.7,0-1.2,0.1-1.6,0.4c-0.4,0.3-0.6,0.6-0.6,1c0,0.4,0.2,0.8,0.5,0.9
				c0.4,0.2,0.7,0.3,1,0.4c0.4,0.1,0.8,0.2,1.3,0.3c0.5,0.1,0.9,0.2,1.3,0.4C265.4,110.5,265.8,110.8,266.2,111.1z"/>
			<path class="st1" d="M271,110.7c0,1,0.3,1.8,0.9,2.4c0.6,0.6,1.3,0.9,2,0.9c0.7,0,1.3-0.2,1.7-0.5c0.4-0.3,0.7-0.7,0.8-1.1h1.3
				c-0.2,0.6-0.6,1.1-1.2,1.7c-0.6,0.6-1.4,0.8-2.6,0.8c-1.2,0-2.2-0.4-3-1.3c-0.8-0.9-1.1-1.9-1.1-3.2c0-1.3,0.4-2.3,1.1-3.2
				c0.7-0.9,1.7-1.3,3-1.3c1.1,0,2.1,0.4,2.9,1.2c0.8,0.8,1.2,2,1.2,3.6L271,110.7z M276.8,109.8c0-0.9-0.3-1.6-0.9-2.1
				c-0.6-0.5-1.2-0.8-2-0.8c-0.8,0-1.4,0.3-2,0.8c-0.5,0.5-0.8,1.2-0.9,2.1H276.8z"/>
			<path class="st1" d="M294.5,114.7h-1.2l-2-6.5h-0.1l-2,6.5H288l-2.6-8.4h1.1l2,6.7h0.1l2-6.7h1.2l2,6.7h0.1l2-6.7h1.1
				L294.5,114.7z"/>
			<path class="st1" d="M306.3,114.7v-5.3c0-0.8-0.2-1.3-0.6-1.7c-0.4-0.4-0.9-0.6-1.6-0.6c-0.8,0-1.4,0.3-2,0.8
				c-0.5,0.5-0.8,1.1-0.8,1.6v5.2h-1.1v-11.6h1.1v4.3c0.4-0.4,0.8-0.8,1.3-1.1c0.5-0.3,1.2-0.4,2-0.4c0.9,0,1.6,0.4,2.1,1
				c0.5,0.6,0.7,1.3,0.7,2v5.7H306.3z"/>
			<path class="st1" d="M317.7,107.2c0.7,0.9,1.1,1.9,1.1,3.2c0,1.3-0.4,2.3-1.1,3.2c-0.7,0.9-1.8,1.3-3,1.3c-1.3,0-2.3-0.4-3-1.3
				c-0.7-0.9-1.1-1.9-1.1-3.2c0-1.3,0.4-2.4,1.1-3.2c0.7-0.9,1.7-1.3,3-1.3C316,106,317,106.4,317.7,107.2z M316.8,113
				c0.5-0.7,0.8-1.5,0.8-2.5c0-1-0.3-1.9-0.8-2.5c-0.5-0.7-1.2-1-2.1-1c-0.9,0-1.6,0.3-2.1,1s-0.8,1.5-0.8,2.5c0,1,0.3,1.8,0.8,2.5
				c0.5,0.7,1.2,1,2.1,1C315.6,114,316.3,113.7,316.8,113z"/>
			<path class="st1" d="M334.1,112.2c-0.2,0.7-0.6,1.3-1.2,1.9c-0.6,0.6-1.5,0.9-2.6,0.9c-1.3,0-2.3-0.4-3-1.3
				c-0.7-0.9-1.1-1.9-1.1-3.2c0-1.3,0.4-2.3,1.1-3.2c0.7-0.9,1.7-1.3,3-1.3c1.1,0,2,0.3,2.7,1c0.7,0.6,1,1.3,1.2,1.9h-1.2
				c-0.1-0.4-0.3-0.8-0.7-1.2c-0.4-0.4-1-0.6-1.9-0.6c-0.9,0-1.6,0.3-2.1,1c-0.5,0.7-0.8,1.5-0.8,2.5c0,1,0.3,1.9,0.8,2.5
				c0.5,0.7,1.2,1,2.1,1c0.7,0,1.2-0.2,1.7-0.5c0.5-0.4,0.7-0.8,0.9-1.3L334.1,112.2z"/>
			<path class="st1" d="M344.1,114.7c-0.1-0.1-0.1-0.3-0.2-0.6c0-0.2-0.1-0.5-0.1-0.8c-0.3,0.4-0.8,0.7-1.4,1.1
				c-0.6,0.3-1.2,0.5-1.9,0.5c-0.9,0.1-1.6-0.1-2.2-0.5c-0.6-0.4-1-0.9-1-1.6c-0.1-0.7,0.1-1.3,0.5-1.7c0.4-0.4,0.9-0.7,1.5-0.9
				c0.5-0.2,1-0.2,1.6-0.3c0.6,0,1.1-0.1,1.7-0.2c0.3-0.1,0.6-0.1,0.9-0.3c0.3-0.1,0.5-0.4,0.5-0.8c0-0.5-0.2-0.9-0.6-1.2
				c-0.4-0.4-1-0.6-1.9-0.6c-0.8,0-1.4,0.2-1.9,0.5c-0.5,0.3-0.7,0.8-0.7,1.3h-1.1c-0.1-0.8,0.2-1.5,1-2c0.7-0.5,1.6-0.8,2.6-0.8
				c1,0,1.8,0.2,2.6,0.7c0.7,0.5,1.1,1.2,1.1,2.1v4.6c0,0.4,0,0.7,0.1,0.9c0.1,0.3,0.1,0.4,0.1,0.4H344.1z M343.9,110.1
				c-0.1,0.1-0.3,0.2-0.5,0.3c-0.2,0.1-0.4,0.1-0.5,0.2c-0.4,0.1-0.8,0.1-1.5,0.2c-0.6,0.1-1.1,0.1-1.3,0.2c-0.6,0.2-1,0.4-1.3,0.7
				c-0.3,0.3-0.4,0.7-0.4,1.1c0,0.5,0.3,0.9,0.7,1.1c0.4,0.2,1,0.3,1.6,0.3c0.8-0.1,1.5-0.3,2.2-0.8c0.7-0.5,1-1,1-1.5V110.1z"/>
			<path class="st1" d="M352.6,107.1c-0.2,0-0.5,0-0.8,0.1c-0.3,0-0.6,0.1-0.8,0.3c-0.5,0.3-0.9,0.6-1.1,1.1c-0.2,0.4-0.4,1-0.4,1.7
				v4.4h-1.1v-8.4h1.1v1.3l0.1,0c0.2-0.3,0.4-0.5,0.6-0.8c0.2-0.2,0.5-0.4,0.8-0.5c0.3-0.1,0.6-0.2,0.9-0.3c0.3,0,0.6-0.1,0.7-0.1
				V107.1z"/>
			<path class="st1" d="M356.9,110.7c0,1,0.3,1.8,0.9,2.4c0.6,0.6,1.3,0.9,2,0.9c0.7,0,1.3-0.2,1.7-0.5c0.4-0.3,0.7-0.7,0.8-1.1h1.3
				c-0.2,0.6-0.6,1.1-1.2,1.7c-0.6,0.6-1.4,0.8-2.6,0.8c-1.2,0-2.2-0.4-3-1.3c-0.8-0.9-1.1-1.9-1.1-3.2c0-1.3,0.4-2.3,1.1-3.2
				c0.7-0.9,1.7-1.3,3-1.3c1.1,0,2.1,0.4,2.9,1.2c0.8,0.8,1.2,2,1.2,3.6L356.9,110.7z M362.8,109.8c0-0.9-0.3-1.6-0.9-2.1
				c-0.6-0.5-1.2-0.8-2-0.8c-0.8,0-1.4,0.3-2,0.8c-0.5,0.5-0.8,1.2-0.9,2.1H362.8z"/>
			<path class="st1" d="M378.2,114.7c-0.1-0.1-0.1-0.3-0.2-0.6c0-0.2-0.1-0.5-0.1-0.8c-0.3,0.4-0.8,0.7-1.4,1.1s-1.2,0.5-1.9,0.5
				c-0.9,0.1-1.6-0.1-2.2-0.5c-0.6-0.4-1-0.9-1-1.6c-0.1-0.7,0.1-1.3,0.5-1.7c0.4-0.4,0.9-0.7,1.5-0.9c0.5-0.2,1-0.2,1.6-0.3
				c0.6,0,1.1-0.1,1.7-0.2c0.3-0.1,0.6-0.1,0.9-0.3c0.3-0.1,0.5-0.4,0.5-0.8c0-0.5-0.2-0.9-0.6-1.2c-0.4-0.4-1-0.6-1.9-0.6
				c-0.8,0-1.4,0.2-1.9,0.5c-0.5,0.3-0.7,0.8-0.7,1.3h-1.1c-0.1-0.8,0.2-1.5,1-2c0.7-0.5,1.6-0.8,2.6-0.8c1,0,1.8,0.2,2.6,0.7
				c0.7,0.5,1.1,1.2,1.1,2.1v4.6c0,0.4,0,0.7,0.1,0.9c0.1,0.3,0.1,0.4,0.1,0.4H378.2z M378,110.1c-0.1,0.1-0.3,0.2-0.5,0.3
				c-0.2,0.1-0.4,0.1-0.5,0.2c-0.4,0.1-0.8,0.1-1.5,0.2c-0.6,0.1-1.1,0.1-1.3,0.2c-0.6,0.2-1,0.4-1.3,0.7c-0.3,0.3-0.4,0.7-0.4,1.1
				c0,0.5,0.3,0.9,0.7,1.1c0.4,0.2,1,0.3,1.6,0.3c0.8-0.1,1.5-0.3,2.2-0.8c0.7-0.5,1-1,1-1.5V110.1z"/>
			<path class="st1" d="M389.5,107.2c0.7,0.9,1.1,1.9,1.1,3.2c0,1.3-0.4,2.4-1.1,3.2c-0.7,0.9-1.7,1.3-2.8,1.3
				c-0.6,0-1.2-0.1-1.7-0.4c-0.5-0.3-0.9-0.6-1.2-1.1l-0.1,0v1.2h-1.1v-11.6h1.1v4.4l0.1,0c0.3-0.5,0.7-0.8,1.2-1.1
				c0.5-0.3,1.1-0.4,1.7-0.4C387.8,106,388.8,106.4,389.5,107.2z M388.6,113c0.5-0.7,0.8-1.5,0.8-2.5c0-1-0.3-1.8-0.8-2.5
				c-0.5-0.7-1.2-1-2.1-1c-0.9,0-1.6,0.3-2.1,1c-0.5,0.6-0.8,1.5-0.8,2.5s0.3,1.9,0.8,2.5s1.2,1,2.1,1
				C387.3,114,388,113.6,388.6,113z"/>
			<path class="st1" d="M400.8,107.2c0.7,0.9,1.1,1.9,1.1,3.2c0,1.3-0.4,2.3-1.1,3.2c-0.7,0.9-1.8,1.3-3,1.3c-1.3,0-2.3-0.4-3-1.3
				c-0.7-0.9-1.1-1.9-1.1-3.2c0-1.3,0.4-2.4,1.1-3.2c0.7-0.9,1.7-1.3,3-1.3C399.1,106,400.1,106.4,400.8,107.2z M399.9,113
				c0.5-0.7,0.8-1.5,0.8-2.5c0-1-0.3-1.9-0.8-2.5c-0.5-0.7-1.2-1-2.1-1c-0.9,0-1.6,0.3-2.1,1c-0.5,0.7-0.8,1.5-0.8,2.5
				c0,1,0.3,1.8,0.8,2.5c0.5,0.7,1.2,1,2.1,1C398.7,114,399.4,113.7,399.9,113z"/>
			<path class="st1" d="M411.2,114.7v-1.3c-0.3,0.4-0.8,0.8-1.3,1.1c-0.5,0.3-1.1,0.4-1.9,0.4c-0.8,0-1.5-0.3-2.1-0.8
				c-0.6-0.5-0.9-1.3-0.9-2.3l0-5.6h1.1v5.3c0,0.8,0.2,1.4,0.6,1.8c0.4,0.4,1,0.6,1.7,0.6c0.8,0,1.4-0.3,1.9-0.8
				c0.5-0.5,0.8-1.1,0.8-1.7v-5.1h1.1v8.4H411.2z"/>
			<path class="st1" d="M417.5,107.1v5.4c0,0.2,0,0.4,0,0.6c0,0.1,0.1,0.3,0.2,0.4c0.1,0.1,0.3,0.2,0.5,0.2c0.2,0,0.3,0,0.5,0v0.9
				h-0.9c-0.2,0-0.5-0.1-0.6-0.2c-0.2-0.1-0.3-0.3-0.5-0.4c-0.1-0.2-0.2-0.3-0.2-0.5c0-0.2,0-0.5,0-0.8v-5.6h-1.1v-0.9h1.1v-2.6h1.1
				v2.6h1.2v0.9H417.5z"/>
			<path class="st1" d="M428.3,107.1v5.4c0,0.2,0,0.4,0,0.6c0,0.1,0.1,0.3,0.2,0.4c0.1,0.1,0.3,0.2,0.5,0.2c0.2,0,0.3,0,0.5,0v0.9
				h-0.9c-0.2,0-0.5-0.1-0.6-0.2c-0.2-0.1-0.3-0.3-0.5-0.4c-0.1-0.2-0.2-0.3-0.2-0.5c0-0.2,0-0.5,0-0.8v-5.6h-1.1v-0.9h1.1v-2.6h1.1
				v2.6h1.2v0.9H428.3z"/>
			<path class="st1" d="M438.7,114.7v-5.3c0-0.8-0.2-1.3-0.6-1.7c-0.4-0.4-0.9-0.6-1.6-0.6c-0.8,0-1.4,0.3-2,0.8
				c-0.5,0.5-0.8,1.1-0.8,1.6v5.2h-1.1v-11.6h1.1v4.3c0.4-0.4,0.8-0.8,1.3-1.1c0.5-0.3,1.2-0.4,2-0.4c0.9,0,1.6,0.4,2.1,1
				c0.5,0.6,0.7,1.3,0.7,2v5.7H438.7z"/>
			<path class="st1" d="M444.2,110.7c0,1,0.3,1.8,0.9,2.4c0.6,0.6,1.3,0.9,2,0.9c0.7,0,1.3-0.2,1.7-0.5c0.4-0.3,0.7-0.7,0.8-1.1h1.3
				c-0.2,0.6-0.6,1.1-1.2,1.7c-0.6,0.6-1.4,0.8-2.6,0.8c-1.2,0-2.2-0.4-3-1.3c-0.8-0.9-1.1-1.9-1.1-3.2c0-1.3,0.4-2.3,1.1-3.2
				c0.7-0.9,1.7-1.3,3-1.3c1.1,0,2.1,0.4,2.9,1.2c0.8,0.8,1.2,2,1.2,3.6L444.2,110.7z M450,109.8c0-0.9-0.3-1.6-0.9-2.1
				c-0.6-0.5-1.2-0.8-2-0.8c-0.8,0-1.4,0.3-2,0.8c-0.5,0.5-0.8,1.2-0.9,2.1H450z"/>
			<path class="st1" d="M454.3,104.3V103h1.3v1.3H454.3z M454.4,114.7v-8.6h1.1v8.6H454.4z"/>
			<path class="st1" d="M463,107.1c-0.2,0-0.5,0-0.8,0.1c-0.3,0-0.6,0.1-0.8,0.3c-0.5,0.3-0.9,0.6-1.1,1.1c-0.2,0.4-0.4,1-0.4,1.7
				v4.4h-1.1v-8.4h1.1v1.3l0.1,0c0.2-0.3,0.4-0.5,0.6-0.8c0.2-0.2,0.5-0.4,0.8-0.5c0.3-0.1,0.6-0.2,0.9-0.3c0.3,0,0.6-0.1,0.7-0.1
				V107.1z"/>
			<path class="st1" d="M476.4,114.7v-5.3c0-0.8-0.2-1.3-0.6-1.7c-0.4-0.4-0.9-0.6-1.6-0.6c-0.8,0-1.4,0.3-2,0.8
				c-0.5,0.5-0.8,1.1-0.8,1.6v5.2h-1.1v-11.6h1.1v4.3c0.4-0.4,0.8-0.8,1.3-1.1c0.5-0.3,1.2-0.4,2-0.4c0.9,0,1.6,0.4,2.1,1
				c0.5,0.6,0.7,1.3,0.7,2v5.7H476.4z"/>
			<path class="st1" d="M481.9,110.7c0,1,0.3,1.8,0.9,2.4c0.6,0.6,1.3,0.9,2,0.9c0.7,0,1.3-0.2,1.7-0.5c0.4-0.3,0.7-0.7,0.8-1.1h1.3
				c-0.2,0.6-0.6,1.1-1.2,1.7c-0.6,0.6-1.4,0.8-2.6,0.8c-1.2,0-2.2-0.4-3-1.3c-0.8-0.9-1.1-1.9-1.1-3.2c0-1.3,0.4-2.3,1.1-3.2
				c0.7-0.9,1.7-1.3,3-1.3c1.1,0,2.1,0.4,2.9,1.2c0.8,0.8,1.2,2,1.2,3.6L481.9,110.7z M487.7,109.8c0-0.9-0.3-1.6-0.9-2.1
				c-0.6-0.5-1.2-0.8-2-0.8c-0.8,0-1.4,0.3-2,0.8c-0.5,0.5-0.8,1.2-0.9,2.1H487.7z"/>
			<path class="st1" d="M492,114.6v-11.6h1.1v11.6H492z"/>
			<path class="st1" d="M498.4,107.1v5.4c0,0.2,0,0.4,0,0.6c0,0.1,0.1,0.3,0.2,0.4c0.1,0.1,0.3,0.2,0.5,0.2c0.2,0,0.3,0,0.5,0v0.9
				h-0.9c-0.2,0-0.5-0.1-0.6-0.2c-0.2-0.1-0.3-0.3-0.5-0.4c-0.1-0.2-0.2-0.3-0.2-0.5c0-0.2,0-0.5,0-0.8v-5.6h-1.1v-0.9h1.1v-2.6h1.1
				v2.6h1.2v0.9H498.4z"/>
			<path class="st1" d="M508.9,114.7v-5.3c0-0.8-0.2-1.3-0.6-1.7c-0.4-0.4-0.9-0.6-1.6-0.6c-0.8,0-1.4,0.3-2,0.8
				c-0.5,0.5-0.8,1.1-0.8,1.6v5.2h-1.1v-11.6h1.1v4.3c0.4-0.4,0.8-0.8,1.3-1.1c0.5-0.3,1.2-0.4,2-0.4c0.9,0,1.6,0.4,2.1,1
				c0.5,0.6,0.7,1.3,0.7,2v5.7H508.9z"/>
		</g>
	</g>
</g>
</svg>
