<?xml version="1.0" encoding="utf-8"?>
<!-- Generator: Adobe Illustrator 24.2.0, SVG Export Plug-In . SVG Version: 6.00 Build 0)  -->
<svg version="1.1" id="Layer_1" xmlns="http://www.w3.org/2000/svg" xmlns:xlink="http://www.w3.org/1999/xlink" x="0px" y="0px"
	 viewBox="0 0 530 120" style="enable-background:new 0 0 530 120;" xml:space="preserve">
<style type="text/css">
	.st0{fill:#FFFFFF;}
</style>
<g>
	<path class="st0" d="M218.8,52c-3.1-1.4-6.2-2.3-9.3-2.9c-5.6-1.1-10-2.4-12.9-3.7c-2.9-1.3-4.4-3.2-4.4-5.5c0-2.2,0.9-3.9,2.8-5
		c1.9-1.1,4.2-1.7,7-1.7c4.6,0,9.1,1.3,13.3,4c1.2,0.8,2.6,1.2,4,1.2c1.9,0,3.5-0.6,4.9-1.9c1.4-1.3,2.1-2.8,2.1-4.6
		c0-2.1-0.9-3.9-2.8-5.5c-4.8-4.1-11.2-6.2-19.2-6.2c-7.7,0-14,1.9-18.8,5.6c-4.8,3.7-7.2,8.7-7.2,14.9c0,5.8,2.1,10.2,6.2,13.4
		c4.1,3.2,10.2,5.5,18.3,6.8c4.5,0.8,7.8,1.8,9.7,3.1c1.9,1.3,2.9,3.1,2.9,5.4c0,2.8-1.1,4.8-3.2,6.1c-2.1,1.3-4.6,1.9-7.5,1.9
		c-2.8,0-5.6-0.5-8.5-1.5c-2.9-1-5.3-2.4-7.2-4.2c-1.3-1.3-2.9-2-4.8-2c-2,0-3.8,0.8-5.2,2.2c-1.5,1.4-2.2,3.1-2.2,5
		c0,1.8,0.6,3.4,1.8,4.7c2.6,2.9,6.1,5.2,10.5,6.9s9.2,2.6,14.3,2.6c7.6,0,13.8-2,19-6.1c4.8-4,7.2-9.2,7.2-15.5
		c0-4.7-1-8.5-3.1-11.3C224.4,55.5,221.9,53.4,218.8,52z"/>
	<path class="st0" d="M286,46.9c0-1.8-0.7-3.3-2.1-4.6c-1.4-1.3-3.2-1.9-5.4-1.9c-1.6,0-3.1,0.4-4.3,1.3c-1.2,0.9-2.1,2-2.5,3.3
		c-3.9-3.7-8.5-5.5-13.7-5.5c-7.4,0-13.3,2.3-17.8,6.9c-4.5,4.6-6.8,10.8-6.8,18.7c0,7.9,2.3,14.2,6.9,18.9
		c4.6,4.7,10.7,7.1,18.1,7.1c5.3,0,9.7-1.6,13.3-4.7c0.9,3.2,3.1,4.8,6.8,4.8c2.2,0,4-0.6,5.4-1.8c1.4-1.3,2.1-2.8,2.1-4.7V46.9z
		 M268.1,74c-2.1,2.4-4.9,3.6-8.5,3.6c-3.4,0-6.2-1.2-8.4-3.6c-2.2-2.4-3.3-5.3-3.3-8.9c0-3.6,1.1-6.6,3.3-8.8
		c2.2-2.2,5-3.3,8.4-3.3c3.6,0,6.4,1.1,8.5,3.3c2.1,2.2,3.2,5.1,3.2,8.8C271.3,68.6,270.2,71.6,268.1,74z"/>
	<path class="st0" d="M326.8,89.3c1.3,1.2,3.1,1.8,5.2,1.8c2.1,0,3.8-0.6,5.4-1.7c1.4-1.1,2.1-2.6,2.1-4.4V62.5
		c0-8-1.9-13.8-5.8-17.5c-3.9-3.7-9-5.5-15.2-5.5c-6.1,0-10.7,1.9-13.7,5.8c-0.4-1.5-1.3-2.7-2.5-3.6c-1.2-0.9-2.7-1.4-4.5-1.4
		c-2.2,0-4,0.6-5.4,1.9c-1.4,1.3-2.1,2.8-2.1,4.6v37.3c0,1.9,0.8,3.5,2.2,4.7c1.4,1.2,3.2,1.8,5.3,1.8c2,0,3.7-0.6,5.1-1.9
		c1.4-1.2,2.1-2.8,2.1-4.7V61.7c0.4-2.4,1.6-4.4,3.4-6.2s4.1-2.7,6.9-2.7c2.6,0,4.9,0.9,6.7,2.7c1.8,1.7,2.7,4.7,2.7,8.8v20.3
		C324.7,86.5,325.4,88.1,326.8,89.3z"/>
	<path class="st0" d="M395.2,22.6c0-1.8-0.7-3.3-2.1-4.6c-1.4-1.3-3.2-1.9-5.4-1.9c-2.1,0-3.9,0.6-5.2,1.9s-2,2.9-2,4.8v21.9
		c-3.7-3.5-8-5.2-12.8-5.2c-7.4,0-13.2,2.3-17.6,6.9c-4.4,4.6-6.6,10.8-6.6,18.7c0,7.9,2.2,14.2,6.7,18.9s10.5,7.1,17.9,7.1
		c5,0,9.3-1.6,12.8-4.7c1,3.1,3.2,4.7,6.8,4.7c2.2,0,4-0.6,5.4-1.8c1.4-1.3,2.1-2.8,2.1-4.7V22.6z M377.4,74
		c-2.1,2.4-4.8,3.6-8.1,3.6c-3.4,0-6.2-1.2-8.2-3.6c-2.1-2.4-3.1-5.3-3.1-8.9c0-3.6,1-6.6,3.1-8.8c2-2.2,4.8-3.3,8.2-3.3
		c3.4,0,6,1.1,8.1,3.3c2.1,2.2,3.1,5.1,3.1,8.8C380.5,68.6,379.5,71.6,377.4,74z"/>
	<path class="st0" d="M474.3,88.6c1.5-1.6,2.1-3.6,1.8-5.8l-7-53.5c-0.3-2.4-1.3-4.4-2.9-5.9c-1.6-1.5-3.6-2.3-6.2-2.3
		c-4.7,0-7.8,2.1-9.2,6.2L439.4,60c-0.4,1.1-0.9,1.7-1.7,1.7c-0.6,0-1.1-0.6-1.7-1.7l-11.3-32.7c-1.4-4.1-4.5-6.2-9.3-6.2
		c-2.3,0-4.3,0.8-6,2.3s-2.7,3.5-3,5.9l-7,53.5c-0.4,2.2,0.2,4.1,1.7,5.8c1.5,1.7,3.4,2.5,5.6,2.5c2,0,3.7-0.6,5.1-1.9
		c1.4-1.3,2.2-2.9,2.3-4.9l2.7-34.3c0.2-1.3,0.6-2,1.3-2c0.8,0,1.4,0.5,1.7,1.5l9.7,27c0.9,1.7,2.1,3.2,3.6,4.3
		c1.5,1.1,3,1.7,4.6,1.7c4,0,6.7-2.1,8.3-6.2l9.7-27.2c0.4-1.1,0.9-1.7,1.7-1.7c0.7,0,1.2,0.7,1.3,2l2.4,34.9c0.2,2,1,3.6,2.4,4.9
		c1.4,1.3,3.1,1.9,5.1,1.9C470.8,91.1,472.8,90.3,474.3,88.6z"/>
	<path class="st0" d="M522.9,73.9c-1.2,0-2.4,0.4-3.5,1.2c-1.6,1.2-3.6,2.1-5.8,2.7c-2.3,0.6-4.5,0.9-6.7,0.9
		c-3.6,0-6.8-0.8-9.6-2.3c-2.9-1.5-4.3-3.5-4.3-6.1c0-1.1,0.4-1.7,1.3-1.7H522c5.1,0,7.7-2.9,7.7-8.7c0-3.4-0.9-6.7-2.7-9.8
		c-1.8-3.1-4.4-5.7-8-7.7c-3.6-2-8.1-3-13.5-3c-7.7,0-14,2.3-19.1,7c-5.1,4.6-7.6,11.1-7.6,19.3c0,7.9,2.6,14.1,7.8,18.6
		s11.5,6.8,19.1,6.8c3.7,0,7.4-0.5,11.4-1.4c3.8-1,6.7-2.3,8.7-4c2.1-1.8,3.2-3.7,3.2-5.7c0-1.6-0.6-3.1-1.8-4.3
		S524.6,73.9,522.9,73.9z M496.5,53.1c2.2-1.5,5-2.3,8.4-2.3c3.2,0,5.8,0.7,7.9,2.1c2.1,1.4,3.1,2.9,3.1,4.6c0,0.7-0.2,1.1-0.6,1.2
		c-0.4,0.1-0.7,0.2-0.9,0.2h-19.8c-0.9,0-1.3-0.4-1.3-1.2C493.3,56.1,494.3,54.6,496.5,53.1z"/>
	<polygon class="st0" points="196.8,115.8 197.9,115.8 197.9,110.5 204,110.5 204,109.5 197.9,109.5 197.9,105.2 204.8,105.2 
		204.8,104.2 196.8,104.2 	"/>
	<path class="st0" d="M212,107c-1.3,0-2.3,0.4-3,1.3c-0.7,0.8-1.1,1.9-1.1,3.2s0.4,2.3,1.1,3.2c0.7,0.9,1.7,1.3,3,1.3
		c1.2,0,2.3-0.4,3-1.3c0.7-0.9,1.1-1.9,1.1-3.2s-0.4-2.3-1.1-3.2C214.3,107.5,213.3,107.1,212,107z M214.1,114.1
		c-0.5,0.7-1.2,1-2.1,1c-0.9,0-1.6-0.3-2.1-1c-0.5-0.7-0.8-1.5-0.8-2.5s0.3-1.8,0.8-2.5c0.5-0.7,1.2-1,2.1-1c0.9,0,1.6,0.3,2.1,1
		c0.5,0.6,0.8,1.5,0.8,2.5S214.6,113.4,214.1,114.1z"/>
	<path class="st0" d="M221.9,107.4c-0.3,0.1-0.6,0.3-0.8,0.5c-0.2,0.3-0.4,0.5-0.6,0.8h-0.1v-1.3h-1.1v8.4h1.1v-4.4
		c0-0.7,0.2-1.3,0.4-1.7c0.2-0.5,0.6-0.8,1.1-1.1c0.2-0.2,0.5-0.3,0.8-0.3c0.3-0.1,0.6-0.1,0.8-0.1V107c-0.1,0-0.4,0.1-0.7,0.1
		C222.5,107.2,222.3,107.3,221.9,107.4z"/>
	<path class="st0" d="M233.1,104.7H232v2.6h-1.1v0.9h1.1v5.6c0,0.3,0,0.6,0,0.8c0,0.2,0,0.4,0.2,0.5c0.2,0.1,0.3,0.3,0.5,0.4
		c0.1,0.1,0.4,0.2,0.6,0.2h0.9v-0.9c-0.2,0-0.3,0-0.5,0c-0.2,0-0.4-0.1-0.5-0.2c-0.1-0.1-0.2-0.3-0.2-0.4c0-0.2,0-0.4,0-0.6v-5.4
		h1.3v-0.9h-1.2V104.7z"/>
	<path class="st0" d="M241.8,107c-0.8,0-1.5,0.1-2,0.4c-0.5,0.3-0.9,0.7-1.3,1.1v-4.3h-1.1v11.6h1.1v-5.2c0-0.5,0.3-1.1,0.8-1.6
		c0.6-0.5,1.2-0.8,2-0.8c0.7,0,1.2,0.2,1.6,0.6c0.4,0.4,0.6,0.9,0.6,1.7v5.3l1.1-0.1V110c0-0.7-0.2-1.4-0.7-2S242.7,107,241.8,107z"
		/>
	<path class="st0" d="M251.9,107c-1.3,0-2.3,0.4-3,1.3c-0.7,0.8-1.1,1.9-1.1,3.2s0.4,2.3,1.1,3.2c0.7,0.9,1.7,1.3,3,1.3
		c1.2,0,2.3-0.4,3-1.3c0.7-0.9,1.1-1.9,1.1-3.2s-0.4-2.3-1.1-3.2C254.1,107.5,253.1,107.1,251.9,107z M254,114.1
		c-0.6,0.7-1.3,1-2.1,1c-0.9,0-1.6-0.3-2.1-1c-0.5-0.7-0.8-1.5-0.8-2.5s0.3-1.8,0.8-2.5c0.5-0.7,1.2-1,2.1-1c0.9,0,1.6,0.3,2.1,1
		c0.5,0.6,0.8,1.5,0.8,2.5S254.5,113.4,254,114.1z"/>
	<path class="st0" d="M264.8,111.3c-0.4-0.2-0.8-0.3-1.3-0.4c-0.5-0.1-0.9-0.2-1.3-0.3c-0.3-0.1-0.6-0.2-1-0.4
		c-0.3-0.1-0.5-0.5-0.5-0.9c0-0.4,0.2-0.7,0.6-1c0.4-0.3,0.9-0.4,1.6-0.4c0.8,0,1.3,0.2,1.7,0.6c0.3,0.3,0.5,0.7,0.5,1.1h1.1
		c0-0.6-0.2-1.2-0.8-1.8c-0.6-0.6-1.4-0.9-2.6-0.9c-1,0-1.8,0.3-2.4,0.8c-0.6,0.5-0.9,1.1-0.9,1.7c0,0.5,0.1,1,0.5,1.3
		c0.4,0.3,0.8,0.5,1.3,0.7c0.4,0.1,0.8,0.2,1.3,0.3s1,0.2,1.4,0.4c0.4,0.2,0.8,0.4,1,0.6c0.2,0.2,0.4,0.5,0.3,0.9
		c-0.1,0.5-0.3,0.9-0.8,1.1c-0.5,0.3-1,0.4-1.6,0.4c-0.7,0-1.3-0.2-1.8-0.5c-0.5-0.3-0.8-0.8-0.8-1.4h-1.1c0,0.5,0.3,1.2,0.8,1.9
		c0.5,0.7,1.5,1,3,1c1,0,1.8-0.3,2.4-0.8c0.6-0.5,0.9-1.1,1-1.8c0-0.5-0.1-1-0.5-1.3S265.1,111.6,264.8,111.3z"/>
	<path class="st0" d="M276.5,108.2c-0.8-0.8-1.8-1.2-2.9-1.2c-1.3,0-2.3,0.4-3,1.3c-0.7,0.9-1.1,1.9-1.1,3.2s0.3,2.3,1.1,3.2
		c0.8,0.9,1.8,1.3,3,1.3s2-0.2,2.6-0.8c0.6-0.6,1-1.1,1.2-1.7h-1.3c-0.1,0.4-0.4,0.8-0.8,1.1c-0.4,0.3-1,0.5-1.7,0.5s-1.4-0.3-2-0.9
		c-0.6-0.6-0.9-1.4-0.9-2.4h7C277.7,110.2,277.3,109,276.5,108.2z M270.7,110.9c0.1-0.9,0.4-1.6,0.9-2.1c0.6-0.5,1.2-0.8,2-0.8
		s1.4,0.3,2,0.8c0.6,0.5,0.9,1.2,0.9,2.1H270.7z"/>
	<polygon class="st0" points="293.6,114.1 293.5,114.1 291.5,107.4 290.3,107.4 288.3,114.1 288.2,114.1 286.2,107.4 285.1,107.4 
		287.7,115.8 288.9,115.8 290.9,109.3 291,109.3 293,115.8 294.2,115.8 296.8,107.4 295.6,107.4 	"/>
	<path class="st0" d="M304.3,107c-0.8,0-1.5,0.1-2,0.4c-0.5,0.3-0.9,0.7-1.3,1.1v-4.3h-1.1v11.6h1.1v-5.2c0-0.5,0.3-1.1,0.8-1.6
		c0.6-0.5,1.2-0.8,2-0.8c0.7,0,1.2,0.2,1.6,0.6c0.4,0.4,0.6,0.9,0.6,1.7v5.3l1.1-0.1V110c0-0.7-0.2-1.4-0.7-2S305.2,107,304.3,107z"
		/>
	<path class="st0" d="M314.4,107c-1.3,0-2.3,0.4-3,1.3c-0.7,0.8-1.1,1.9-1.1,3.2s0.4,2.3,1.1,3.2c0.7,0.9,1.7,1.3,3,1.3
		c1.2,0,2.3-0.4,3-1.3c0.7-0.9,1.1-1.9,1.1-3.2s-0.4-2.3-1.1-3.2C316.7,107.5,315.7,107.1,314.4,107z M316.5,114.1
		c-0.5,0.7-1.2,1-2.1,1s-1.6-0.3-2.1-1c-0.5-0.7-0.8-1.5-0.8-2.5s0.3-1.8,0.8-2.5c0.5-0.7,1.2-1,2.1-1c0.9,0,1.6,0.3,2.1,1
		c0.5,0.6,0.8,1.5,0.8,2.5S317,113.4,316.5,114.1z"/>
	<path class="st0" d="M330.1,108.2c0.9,0,1.5,0.2,1.9,0.6c0.4,0.4,0.6,0.8,0.7,1.2h1.2c-0.2-0.6-0.5-1.3-1.2-1.9
		c-0.7-0.7-1.6-1-2.7-1c-1.3,0-2.3,0.4-3,1.3c-0.7,0.9-1.1,1.9-1.1,3.2c0,1.3,0.4,2.3,1.1,3.2c0.7,0.9,1.7,1.3,3,1.3
		c1.1,0,2-0.3,2.6-0.9c0.6-0.6,1-1.2,1.2-1.9l-1.1,0.1c-0.2,0.5-0.4,0.9-0.9,1.3c-0.5,0.3-1,0.5-1.7,0.5c-0.9,0-1.6-0.3-2.1-1
		c-0.5-0.6-0.8-1.5-0.8-2.5s0.3-1.8,0.8-2.5S329.2,108.2,330.1,108.2z"/>
	<path class="st0" d="M344.8,114.3v-4.6c0-0.9-0.4-1.6-1.1-2.1c-0.8-0.5-1.6-0.7-2.6-0.7s-1.9,0.3-2.6,0.8c-0.8,0.5-1.1,1.2-1,2h1.1
		c0-0.5,0.2-1,0.7-1.3c0.5-0.3,1.1-0.5,1.9-0.5c0.9,0,1.5,0.2,1.9,0.6c0.4,0.3,0.6,0.7,0.6,1.2c0,0.4-0.2,0.7-0.5,0.8
		c-0.3,0.2-0.6,0.2-0.9,0.3c-0.6,0.1-1.1,0.2-1.7,0.2c-0.6,0.1-1.1,0.1-1.6,0.3c-0.6,0.2-1.1,0.5-1.5,0.9c-0.4,0.4-0.6,1-0.5,1.7
		c0,0.7,0.4,1.2,1,1.6c0.6,0.4,1.3,0.6,2.2,0.5c0.7,0,1.3-0.2,1.9-0.5c0.6-0.4,1.1-0.7,1.4-1.1c0,0.3,0.1,0.6,0.1,0.8
		c0.1,0.3,0.1,0.5,0.2,0.6v-0.2h1.2c0,0,0-0.1-0.1-0.4C344.8,115,344.8,114.7,344.8,114.3z M342.7,114.5c-0.7,0.5-1.4,0.7-2.2,0.8
		c-0.6,0-1.2-0.1-1.6-0.3s-0.7-0.6-0.7-1.1c0-0.4,0.1-0.8,0.4-1.1s0.7-0.5,1.3-0.7c0.2-0.1,0.7-0.1,1.3-0.2c0.7-0.1,1.1-0.1,1.5-0.2
		c0.1-0.1,0.3-0.1,0.5-0.2s0.4-0.2,0.5-0.3l0,1.8C343.7,113.5,343.4,114,342.7,114.5z"/>
	<path class="st0" d="M350.8,107.4c-0.3,0.1-0.6,0.3-0.8,0.5c-0.2,0.3-0.4,0.5-0.6,0.8h-0.1v-1.3h-1.1v8.4h1.1v-4.4
		c0-0.7,0.2-1.3,0.4-1.7c0.2-0.5,0.6-0.8,1.1-1.1c0.2-0.2,0.5-0.3,0.8-0.3c0.3-0.1,0.6-0.1,0.8-0.1V107c-0.1,0-0.4,0.1-0.7,0.1
		C351.3,107.2,351,107.3,350.8,107.4z"/>
	<path class="st0" d="M362.4,108.2c-0.8-0.8-1.8-1.2-2.9-1.2c-1.3,0-2.3,0.4-3,1.3c-0.7,0.9-1.1,1.9-1.1,3.2s0.3,2.3,1.1,3.2
		c0.8,0.9,1.8,1.3,3,1.3s2-0.2,2.6-0.8c0.6-0.6,1-1.1,1.2-1.7H362c-0.1,0.4-0.4,0.8-0.8,1.1c-0.4,0.3-1,0.5-1.7,0.5s-1.4-0.3-2-0.9
		c-0.6-0.6-0.9-1.4-0.9-2.4h7C363.6,110.2,363.2,109,362.4,108.2z M357.6,108.8c0.6-0.5,1.2-0.8,2-0.8s1.4,0.3,2,0.8
		c0.6,0.5,0.9,1.2,0.9,2.1h-5.8C356.8,110,357.1,109.3,357.6,108.8z"/>
	<path class="st0" d="M378.9,114.3v-4.6c0-0.9-0.4-1.6-1.1-2.1c-0.8-0.5-1.6-0.7-2.6-0.7s-1.9,0.3-2.6,0.8c-0.8,0.5-1.1,1.2-1,2h1.1
		c0-0.5,0.2-1,0.7-1.3c0.5-0.3,1.1-0.5,1.9-0.5c0.9,0,1.5,0.2,1.9,0.6c0.4,0.3,0.6,0.7,0.6,1.2c0,0.4-0.2,0.7-0.5,0.8
		c-0.3,0.2-0.6,0.2-0.9,0.3c-0.6,0.1-1.1,0.2-1.7,0.2c-0.6,0.1-1.1,0.1-1.6,0.3c-0.6,0.2-1.1,0.5-1.5,0.9c-0.4,0.4-0.6,1-0.5,1.7
		c0,0.7,0.4,1.2,1,1.6c0.6,0.4,1.3,0.6,2.2,0.5c0.7,0,1.3-0.1,1.9-0.5c0.6-0.4,1.1-0.7,1.4-1.1c0,0.3,0.1,0.6,0.1,0.8
		c0.1,0.3,0.1,0.5,0.2,0.6v-0.2h1.2c0,0,0-0.1-0.1-0.4C378.9,115,378.9,114.7,378.9,114.3z M376.8,114.5c-0.7,0.5-1.4,0.7-2.2,0.8
		c-0.6,0-1.2-0.1-1.6-0.3c-0.4-0.2-0.7-0.6-0.7-1.1c0-0.4,0.1-0.8,0.4-1.1s0.7-0.5,1.3-0.7c0.2-0.1,0.7-0.1,1.3-0.2
		c0.7-0.1,1.1-0.1,1.5-0.2c0.1-0.1,0.3-0.1,0.5-0.2s0.4-0.2,0.5-0.3l0,1.8C377.8,113.5,377.5,114,376.8,114.5z"/>
	<path class="st0" d="M386.4,107c-0.6,0-1.2,0.1-1.7,0.4c-0.5,0.3-0.9,0.6-1.2,1.1h-0.1v-4.4h-1.1v11.6h1.1v-1.2h0.1
		c0.3,0.5,0.7,0.8,1.2,1.1c0.5,0.3,1.1,0.4,1.7,0.4c1.1,0,2.1-0.4,2.8-1.3c0.7-0.8,1.1-1.9,1.1-3.2s-0.4-2.3-1.1-3.2
		C388.5,107.5,387.5,107.1,386.4,107z M388.3,114.1c-0.6,0.6-1.3,1-2.1,1c-0.9,0-1.6-0.4-2.1-1c-0.5-0.6-0.8-1.5-0.8-2.5
		s0.3-1.9,0.8-2.5c0.5-0.7,1.2-1,2.1-1c0.9,0,1.6,0.3,2.1,1c0.5,0.7,0.8,1.5,0.8,2.5S388.8,113.4,388.3,114.1z"/>
	<path class="st0" d="M397.5,107c-1.3,0-2.3,0.4-3,1.3c-0.7,0.8-1.1,1.9-1.1,3.2s0.4,2.3,1.1,3.2c0.7,0.9,1.7,1.3,3,1.3
		c1.2,0,2.3-0.4,3-1.3c0.7-0.9,1.1-1.9,1.1-3.2s-0.4-2.3-1.1-3.2C399.8,107.5,398.8,107.1,397.5,107z M399.6,114.1
		c-0.5,0.7-1.2,1-2.1,1c-0.9,0-1.6-0.3-2.1-1c-0.5-0.7-0.8-1.5-0.8-2.5s0.3-1.8,0.8-2.5c0.5-0.7,1.2-1,2.1-1c0.9,0,1.6,0.3,2.1,1
		c0.5,0.6,0.8,1.5,0.8,2.5S400.1,113.4,399.6,114.1z"/>
	<path class="st0" d="M410.8,112.5c0,0.6-0.3,1.2-0.8,1.7s-1.1,0.8-1.9,0.8c-0.7,0-1.3-0.2-1.7-0.6c-0.4-0.4-0.6-1-0.6-1.8v-5.3
		h-1.1v5.6c0,1,0.3,1.8,0.9,2.3c0.6,0.5,1.3,0.8,2.1,0.8s1.4-0.1,1.9-0.4c0.5-0.3,1-0.7,1.3-1.1v1.3h1v-8.4h-1.1V112.5z"/>
	<path class="st0" d="M417.3,104.7h-1.1v2.6h-1.1v0.9h1.1v5.6c0,0.3,0,0.6,0,0.8c0,0.2,0.1,0.3,0.2,0.5c0.2,0.1,0.3,0.3,0.5,0.4
		c0.1,0.1,0.4,0.2,0.6,0.2h0.9v-0.9c-0.2,0-0.3,0-0.5,0s-0.4-0.1-0.5-0.2c-0.1-0.1-0.2-0.3-0.2-0.4c0-0.2,0-0.4,0-0.6v-5.4h1.3v-0.9
		h-1.2V104.7z"/>
	<path class="st0" d="M428.1,104.7H427v2.6h-1.1v0.9h1.1v5.6c0,0.3,0,0.6,0,0.8c0,0.2,0.1,0.3,0.2,0.5c0.2,0.1,0.3,0.3,0.5,0.4
		c0.1,0.1,0.4,0.2,0.6,0.2h0.9v-0.9c-0.2,0-0.3,0-0.5,0s-0.4-0.1-0.5-0.2c-0.1-0.1-0.2-0.3-0.2-0.4c0-0.2,0-0.4,0-0.6v-5.4h1.3v-0.9
		h-1.2V104.7z"/>
	<path class="st0" d="M436.7,107c-0.8,0-1.5,0.1-2,0.4c-0.5,0.3-0.9,0.7-1.3,1.1v-4.3h-1.1v11.6h1.1v-5.2c0-0.5,0.3-1.1,0.8-1.6
		c0.6-0.5,1.2-0.8,2-0.8c0.7,0,1.2,0.2,1.6,0.6c0.4,0.4,0.6,0.9,0.6,1.7v5.3l1.1-0.1V110c0-0.7-0.2-1.4-0.7-2S437.6,107,436.7,107z"
		/>
	<path class="st0" d="M449.7,108.2c-0.8-0.8-1.8-1.2-2.9-1.2c-1.3,0-2.3,0.4-3,1.3c-0.7,0.9-1.1,1.9-1.1,3.2s0.3,2.3,1.1,3.2
		c0.8,0.9,1.8,1.3,3,1.3s2-0.2,2.6-0.8c0.6-0.6,1-1.1,1.2-1.7h-1.3c-0.1,0.4-0.4,0.8-0.8,1.1c-0.4,0.3-1,0.5-1.7,0.5s-1.4-0.3-2-0.9
		c-0.6-0.6-0.9-1.4-0.9-2.4h7C450.9,110.2,450.5,109,449.7,108.2z M443.9,110.9c0.1-0.9,0.4-1.6,0.9-2.1c0.6-0.5,1.2-0.8,2-0.8
		s1.4,0.3,2,0.8c0.6,0.5,0.9,1.2,0.9,2.1H443.9z"/>
	<rect x="454" y="104.1" class="st0" width="1.3" height="1.3"/>
	<rect x="454.1" y="107.2" class="st0" width="1.1" height="8.6"/>
	<path class="st0" d="M461.1,107.4c-0.3,0.1-0.6,0.3-0.8,0.5c-0.2,0.3-0.4,0.5-0.6,0.8h-0.1v-1.3h-1.1v8.4h1.1v-4.4
		c0-0.7,0.2-1.3,0.4-1.7c0.2-0.5,0.6-0.8,1.1-1.1c0.2-0.2,0.5-0.3,0.8-0.3c0.3-0.1,0.6-0.1,0.8-0.1l0-1.2c-0.1,0-0.4,0.1-0.7,0.1
		C461.8,107.2,461.4,107.3,461.1,107.4z"/>
	<path class="st0" d="M474.4,107c-0.8,0-1.5,0.1-2,0.4c-0.5,0.3-0.9,0.7-1.3,1.1v-4.3H470v11.6h1.1v-5.2c0-0.5,0.3-1.1,0.8-1.6
		c0.6-0.5,1.2-0.8,2-0.8c0.7,0,1.2,0.2,1.6,0.6c0.4,0.4,0.6,0.9,0.6,1.7v5.3l1.1-0.1V110c0-0.7-0.2-1.4-0.7-2S475.3,107,474.4,107z"
		/>
	<path class="st0" d="M487.4,108.2c-0.8-0.8-1.8-1.2-2.9-1.2c-1.3,0-2.3,0.4-3,1.3c-0.7,0.9-1.1,1.9-1.1,3.2s0.3,2.3,1.1,3.2
		c0.8,0.9,1.8,1.3,3,1.3s2-0.2,2.6-0.8c0.6-0.6,1-1.1,1.2-1.7H487c-0.1,0.4-0.4,0.8-0.8,1.1c-0.4,0.3-1,0.5-1.7,0.5s-1.4-0.3-2-0.9
		c-0.6-0.6-0.9-1.4-0.9-2.4h7C488.6,110.2,488.2,109,487.4,108.2z M482.5,108.8c0.6-0.5,1.2-0.8,2-0.8s1.4,0.3,2,0.8
		c0.6,0.5,0.9,1.2,0.9,2.1h-5.8C481.8,110,482,109.3,482.5,108.8z"/>
	<rect x="491.7" y="104.1" class="st0" width="1.1" height="11.6"/>
	<path class="st0" d="M498.2,104.7h-1.1v2.6H496v0.9h1.1v5.6c0,0.3,0,0.6,0,0.8c0,0.2,0.1,0.3,0.2,0.5c0.2,0.1,0.3,0.3,0.5,0.4
		c0.1,0.1,0.4,0.2,0.6,0.2h0.9v-0.9c-0.2,0-0.3,0-0.5,0s-0.4-0.1-0.5-0.2c-0.1-0.1-0.2-0.3-0.2-0.4c0-0.2,0-0.4,0-0.6v-5.4h1.3v-0.9
		h-1.2V104.7z"/>
	<path class="st0" d="M506.9,107c-0.8,0-1.5,0.1-2,0.4c-0.5,0.3-0.9,0.7-1.3,1.1v-4.3h-1.1v11.6h1.1v-5.2c0-0.5,0.3-1.1,0.8-1.6
		c0.6-0.5,1.2-0.8,2-0.8c0.7,0,1.2,0.2,1.6,0.6c0.4,0.4,0.6,0.9,0.6,1.7v5.3l1.1-0.1V110c0-0.7-0.2-1.4-0.7-2S507.8,107,506.9,107z"
		/>
	<path class="st0" d="M56.9,6.4c1-0.6,2.1-1,3.2-1.3c2.4-0.7,5-0.6,7.4,0.3c0.9,0.4,1.7,0.9,2.5,1.5c0.3,0.2,0.7,0.4,1.1,0.4
		c0.9,0,1.7-0.7,1.8-1.7c0-0.5-0.2-1.1-0.7-1.4c-7.8-6.3-16.7-1-17-0.8c-0.8,0.5-1,1.6-0.5,2.4C55.2,6.6,56.2,6.9,56.9,6.4z"/>
	<path class="st0" d="M106.5,11.2c1.1-0.4,2.2-0.6,3.4-0.7c2.5-0.3,5,0.3,7.2,1.6c0.8,0.5,1.6,1.2,2.2,1.9c0.3,0.4,0.8,0.6,1.3,0.6
		c0.4,0,0.8-0.2,1.1-0.4c0.7-0.6,0.8-1.7,0.2-2.4c-6.6-7.6-16.2-4-16.6-3.8c-0.9,0.4-1.3,1.4-1,2.2
		C104.6,11.1,105.6,11.5,106.5,11.2z"/>
	<path class="st0" d="M161.1,73.9c-1.5-0.8-3.2-1.4-4.9-1.7c2.3-1.6,3.6-4.2,3.7-7c0-5.8-2-10.6-5.8-14c-3.5-3-7.9-4.6-12.5-4.6
		c-2.6,0-5.2,0.6-7.6,1.6c-3-0.8-6.3-1.5-9.7-2.2c0.2-0.9,0.4-1.9,0.5-2.8c0.8-6.1-0.3-12.3-3.1-17.7c-2.9-5.2-7.2-8.3-12.2-8.9
		c-10-1.2-19.5,8.8-21.1,22.2c-0.2,1.2-0.2,2.5-0.2,3.7c-1.3,0-2.6,0-3.8,0c-2,0-3.9,0-5.8,0.1c0.4-1.6,0.8-3.2,1-4.8
		c1.6-13.5-5.3-25.4-15.3-26.6s-19.5,8.7-21.1,22.1c-0.5,4.2-0.2,8.6,1,12.7c-3.3,0.6-6.4,1.4-9.4,2.1c-2.4-1.1-5-1.6-7.6-1.6
		c-4.6-0.1-9,1.6-12.5,4.6c-3.8,3.4-5.8,8.3-5.8,14c0,2.9,1.5,5.6,3.9,7.2c-5.5,0.9-10,4.5-12.2,9.5C-0.8,85.4-0.7,89.5,1,93
		c2.1,4.4,6,7.8,10.7,9.3c3.2,1.1,6.7,1.3,10,0.5c6.6,9.6,30.2,18.3,62.8,18.3c32.6,0,56.2-8.7,62.8-18.3c4,0.9,8.3,0.5,12.1-1.2
		c7.2-3.6,11.4-11.5,9.4-18.4C167.6,79.2,164.8,75.8,161.1,73.9z M108,20.2c0.3,0,0.7,0,1.1,0c3.9,0.5,7.3,2.9,9.6,7.1
		c2.5,4.8,3.4,10.2,2.7,15.6c-0.1,0.9-0.3,1.8-0.4,2.6c-0.1,0.6-0.3,1.1-0.4,1.7c-0.2,0.6-0.3,1.1-0.5,1.7c-0.6,1.7-1.3,3.3-2.2,4.9
		c-0.3,0.6-0.7,1.2-1.1,1.7c-0.4,0.6-0.9,1.2-1.4,1.7c-2.8,3.2-6.3,5.1-10,5.1c-0.4,0-0.8,0-1.3-0.1c-3.4-0.5-6.4-2.4-8.3-5.2
		c-0.4-0.6-0.8-1.1-1.1-1.7l-0.1-0.2c-0.3-0.5-0.5-1-0.8-1.6c-0.2-0.3-0.3-0.7-0.4-1c0.3,0.3,0.6,0.7,0.9,1c0.7,0.7,1.5,1.3,2.4,1.8
		c0.9,0.5,1.9,0.8,2.9,0.9c1.6,0.2,3.3-0.1,4.7-0.8c0.9-0.4,1.8-1,2.6-1.7c1.9-1.6,3.3-3.7,4.3-6c0.2-0.5,0.4-1.1,0.6-1.7l0.1-0.2
		l-2.1-1.8l-4.2-3.5l7.2-3.5c-0.7-6.4-4.4-11.4-9.4-12c-2.5-0.3-5.1,0.5-7,2.2C99.4,22.8,103.6,20.2,108,20.2z M62.6,14.5
		c0.4,0,0.7,0,1.2,0.1c8.2,1,13.7,11.4,12.3,23c-0.2,1.8-0.6,3.6-1.2,5.3c-0.2,0.6-0.4,1.2-0.6,1.7s-0.5,1.2-0.8,1.8
		c-0.2,0.4-0.4,0.8-0.6,1.2c-3.4-0.5-6.8,0.9-8.8,3.7c-0.4,0.5-0.7,1.1-0.9,1.7c-0.2,0.6-0.4,1.1-0.5,1.7c-0.2,0.6-0.2,1.2-0.2,1.7
		v0.1c-1.2,0.3-2.5,0.4-3.7,0.2c-0.6-0.1-1.1-0.2-1.7-0.4c-1.3-0.4-2.5-1-3.6-1.8c-0.7-0.5-1.4-1.1-2-1.8c-0.9-1-1.7-2.1-2.3-3.3
		c-0.1-0.2-0.2-0.5-0.3-0.7c-0.3-0.5-0.5-1.1-0.7-1.6c0-0.1-0.1-0.2-0.1-0.3l0.2,0.2c0.5,0.5,1,1,1.5,1.5c1.3,1.1,2.8,1.7,4.5,1.9
		c3.1,0.4,6.1-1,8.5-3.6c0.6-0.6,1.1-1.2,1.5-1.9c0.4-0.6,0.8-1.2,1.1-1.8c0.5-1,0.9-2,1.3-3l-6.4-5.3l7.2-3.5
		c-0.7-6.4-4.4-11.4-9.5-12c-2.5-0.3-5.1,0.5-7,2.2C54,17.1,58.2,14.5,62.6,14.5z M47.1,31.9c-0.3,1.7-0.4,3.4-0.4,5
		c0,1.1,0,2.1,0.1,3.1c0.2,2,0.5,3.9,1,5.5c-0.4-1.6-0.8-3.5-1-5.5c-0.1-1-0.1-2.1-0.1-3.1C46.7,35.3,46.8,33.6,47.1,31.9z
		 M12.4,65.1c0-0.1,0-0.1,0-0.2c0-1.5,0.2-3.1,0.6-4.6c0.3-1.2,0.8-2.4,1.5-3.6c0.7-1.2,1.6-2.2,2.6-3.1c2.8-2.4,6.4-3.7,10.2-3.7
		c0.5,0,0.9,0,1.4,0.1c1.2,0.1,2.3,0.3,3.5,0.7c0.9,0.3,1.7,0.7,2.5,1.1c3.4,1.9,5.4,5.5,5.3,9.3c0,0.1,0,0.1,0,0.2
		c0.1,0.9,0.9,1.6,1.9,1.5c0.9-0.1,1.6-0.9,1.5-1.7c0.1-4-1.5-7.8-4.5-10.5c2.1-0.5,4.3-1,6.7-1.4c0.3,0.6,0.6,1.2,0.9,1.7
		c0.8,1.5,1.8,2.9,3,4.2c0.4,0.5,0.9,0.9,1.4,1.3c0.5,0.4,1,0.8,1.5,1.2c1.9,1.3,4,2,6.3,2.3c0.5,0.1,1,0.1,1.6,0.1
		c1,0,2.1-0.1,3.1-0.4c0.6,1.6,1.7,3,3.2,4l0.1,0.1c0.9,0.6,2,1.1,3.1,1.4c0.7,0.1,1.3,0.2,2,0.2c0.5,0,1,0,1.6-0.1
		c0.9-0.2,1.6-1.1,1.4-2c0-0.1,0-0.2-0.1-0.3c-0.1-0.3-0.3-0.6-0.6-0.8c-0.4-0.3-0.8-0.4-1.3-0.3c-2.5,0.4-5-0.9-6-3.3
		c-0.2-0.4-0.3-0.9-0.4-1.3c0-0.1,0-0.3,0-0.4c0-0.2,0-0.4,0-0.6c0-0.5,0-1,0.1-1.5l0.1-0.2c0.2-0.5,0.4-1,0.7-1.5
		c0.1-0.1,0.1-0.2,0.2-0.3c0.9-1.1,2.1-1.8,3.4-2c0.7-0.1,1.4-0.1,2.1,0.1c0.6,0.1,1.1,0.4,1.7,0.7c0.6,0.4,1.1,0.8,1.6,1.4
		c0.4,0.5,0.7,1.1,0.9,1.7c0.1,0.2,0.1,0.4,0.2,0.7c0.1,0.4,0.3,0.8,0.7,1.1c0.4,0.3,0.8,0.4,1.3,0.3c0.3,0,0.5-0.2,0.7-0.3
		c0.5-0.4,0.8-1,0.7-1.7c-0.4-2.5-2-4.8-4.2-6.1c0.4-0.8,0.8-1.7,1.2-2.6c2.3-0.1,4.6-0.1,7-0.1c1.4,0,2.7,0,4,0
		c0.2,2.5,0.8,4.9,1.7,7.2c0.2,0.6,0.5,1.2,0.7,1.7s0.5,1,0.8,1.6l0.1,0.2c2.9,5,7.2,8.1,12.1,8.7c0.5,0.1,1.1,0.1,1.6,0.1
		c5.3,0,10.3-3,13.9-7.9c0.4-0.5,0.7-1,1-1.5s0.6-1,0.9-1.5c0.9-1.7,1.7-3.4,2.3-5.3c2.3,0.5,4.5,0.9,6.6,1.4
		c-1.7,1.6-3,3.5-3.7,5.8c-0.2,0.6-0.3,1.1-0.4,1.7c-0.1,0.6-0.2,1.2-0.2,1.8c0,0.4-0.1,0.8-0.1,1.3c0,1,0.8,1.7,1.8,1.7
		c0.8,0,1.5-0.6,1.7-1.5v-0.1c0,0,0-0.1,0-0.2c0-0.6,0-1.1,0.1-1.7c0.1-0.6,0.2-1.2,0.4-1.7c0.8-2.5,2.5-4.7,4.8-6
		c0.8-0.5,1.6-0.8,2.5-1.1c1.1-0.4,2.3-0.6,3.5-0.7c0.5,0,0.9-0.1,1.4-0.1c3.7,0,7.4,1.3,10.2,3.7c1,0.9,1.9,2,2.5,3.1
		c0.7,1.1,1.2,2.3,1.5,3.5c0.4,1.5,0.6,3,0.6,4.6c0,0.1,0,0.1,0,0.2c0,1.9-1,3.5-2.9,4.8c-0.5,0.3-1,0.6-1.5,0.9
		c-0.5,0.3-1,0.5-1.6,0.8c-1.5,0.6-3,1.1-4.5,1.5c-1.2,0.3-2.5,0.6-3.9,0.9c-2.8,0.5-5.9,0.9-9.3,1.3c-3.2,0.3-6.6,0.6-10.3,0.7
		l-1.9,0.1l-2,0.1c-7.3,0.3-15.2,0.4-23.2,0.4H80.4H71c-2.8,0-5.5,0-8.2-0.1c-2.1,0-4.1-0.1-6.1-0.1h-1.2c-3.6-0.1-7-0.2-10.4-0.4
		l-1.8-0.1c-5.2-0.3-10.3-0.8-15.4-1.6c-1.3-0.2-2.5-0.4-3.6-0.7c-1.1-0.3-2-0.5-2.9-0.7C15.8,71,12.4,68.7,12.4,65.1z M55,87.9
		c3.8-0.6,7.5-1.4,11.3-2.4l0.9-0.3c1.2-0.3,2.4-0.7,3.5-1.1l0.6-0.2l1,0.3c0.9,0.3,1.8,0.6,2.8,0.9c0.9,0.3,2,0.7,2.9,1l1.7,0.6
		c2.2,0.8,4.3,1.7,6.4,2.6c-0.8,0.3-1.6,0.3-2.3,0.4c-9,1.3-17.5,1.3-24.1,0.1c-2.1-0.3-4.1-0.9-6-1.7L55,87.9z M50.5,85.3l-1.8,0.2
		L47,85.7c-3.4,0.3-6.8,0.4-10.1,0.3c-1.9-0.1-3.7-0.2-5.4-0.4c-1.3-0.2-2.3-0.3-3.3-0.5c-6.3-1.2-9.4-3.2-9.7-4.6
		c-0.2-1.4,1-2.8,3.2-4l0.3-0.1c3.3,0.8,6.7,1.4,10.1,1.8l2.7,0.3c3.6,0.4,7.6,0.7,11.8,0.9c1.1,0.1,2.3,0.1,3.4,0.2l3.2,0.1h2
		l1.4,0.4c2.3,0.6,4.8,1.2,7.5,1.9h0.2l1.3,0.4c-1.4,0.4-2.8,0.7-4.3,1.1l-2.1,0.4c-1,0.2-2,0.4-3.1,0.6l-1.2,0.2
		C53.4,84.9,51.9,85.1,50.5,85.3z M85.1,85.2l-1.3-0.5L82,84l-1.3-0.5l-0.5-0.2l-1.4-0.5l-0.4-0.1l-1.8-0.6l-0.8-0.3l-1.7-0.6
		c-0.9-0.3-1.8-0.6-2.7-0.8l-2-0.6h3.5h12c10.1,0,20.4,0,29.9-0.3c1,0,2-0.1,3-0.1l2.6-0.1l2.3-0.1l2.1-0.1
		c-1.1,0.7-2.1,1.4-3.1,2.1c-0.6,0.4-1.2,0.9-1.8,1.3l-1.1,0.9l-0.8,0.7c-0.6,0.5-1.2,1.1-1.8,1.6c-1,0.9-1.9,1.9-2.7,2.8
		c-0.6,0.7-1.2,1.3-1.7,2c-0.5,0.6-1,1.3-1.5,1.9c-1,1.3-1.9,2.5-2.6,3.5c-0.3,0.5-0.9,0.8-1.5,0.9c-0.7,0.1-1.3-0.1-1.8-0.6
		c-1.5-1.3-3.1-2.5-4.8-3.6c-1-0.6-2-1.3-3-1.9c-0.7-0.4-1.4-0.8-2.2-1.2c-0.7-0.4-1.3-0.7-2-1L92,88.3c-1.4-0.7-2.8-1.3-4.3-2
		C86.8,85.9,86,85.5,85.1,85.2z M121,86.2c0.6-0.5,1.3-1,1.9-1.5c0.7-0.5,1.4-1,2.1-1.5c0.6-0.4,1.1-0.8,1.7-1.1
		c1.9-1.2,3.9-2.2,5.9-3.1l0.9-0.4l1-0.1l2.3-0.3c4.3-0.5,8.6-1.3,12.8-2.6c-0.2,0.1-0.3,0.2-0.4,0.3c-2.6,2.6-8,5.8-16.2,8.5
		c-1.1,0.4-2.3,0.7-3.5,1.1c-1.4,0.4-2.9,0.8-4.4,1.1c-1.9,0.4-3.9,0.8-5.9,1.2C119.8,87.3,120.4,86.7,121,86.2z M129.6,110.2
		c-11.9,4.7-28,7.2-45.2,7.2s-33.5-2.6-45.2-7.2c-7.5-2.9-11.9-6.1-14.1-8.8c1.9-0.9,3.5-2.2,4.9-3.7c2.2-2.3,5.5-3.3,8.6-2.5
		c3.1,0.6,5.7,2.8,6.7,5.8c1.7,6.2,7.6,10.8,14.6,11.6c7,0.8,13.8-2.5,16.7-8.2c1.6-2.7,4.6-4.3,7.8-4.2h0.2
		c3.2-0.1,6.1,1.5,7.8,4.2c2.7,5.1,8.4,8.3,14.7,8.3c0.7,0,1.3,0,2-0.1c7.1-0.8,13-5.4,14.6-11.6c1-3,3.6-5.2,6.7-5.8l0.2-0.1
		c3.1-0.8,6.3,0.2,8.5,2.5c1.3,1.5,2.9,2.8,4.7,3.7C141.6,104.1,137.2,107.3,129.6,110.2z M158,98c-3.1,1.5-6.3,1.9-9.3,1.3
		c-0.6-0.1-1.1-0.2-1.7-0.4c-0.6-0.2-1.1-0.4-1.6-0.7c-1.4-0.7-2.7-1.6-3.7-2.8c-3-3.3-7.6-4.6-11.9-3.6h-0.2c-4.4,0.9-8,4-9.3,8.3
		c-1.3,4.8-6,8.5-11.7,9.1s-11-2-13.3-6.4c-2.2-3.8-6.4-6.2-10.8-6.1h-0.2c-4.5-0.1-8.6,2.2-10.8,6.1c-2.3,4.4-7.6,7-13.3,6.4
		c-5.6-0.6-10.3-4.2-11.6-9.1c-1.4-4.2-5-7.4-9.3-8.2h-0.2c-4.3-1-8.9,0.4-11.9,3.6c-1.1,1.2-2.4,2.2-3.9,2.9
		c-0.5,0.2-1.1,0.5-1.6,0.6c-0.6,0.2-1.1,0.3-1.7,0.4c-2.4,0.4-5,0.2-7.3-0.6c-3.8-1.2-6.9-3.9-8.6-7.4c-1.3-2.6-1.4-5.7-0.3-8.4
		c2-5,7.6-8,13.4-7.6c-1.6,1.3-2.4,3.4-2,5.5c0.5,3.1,4.2,5.6,10.4,7.1c0.7,0.2,1.4,0.3,2.1,0.4l0.5,0.1c1.1,0.2,2.2,0.4,3.4,0.5
		c2.5,0.3,5,0.4,7.5,0.4c3.1,0,6.3-0.2,9.6-0.5c2,2,5.7,3.5,10.7,4.4c3.8,0.6,7.6,1,11.4,0.9c5.4,0,10.9-0.5,16.3-1.4
		c1.6-0.3,3.1-0.5,4.6-0.9c3.8,1.9,7.3,4.2,10.6,6.9c1.1,0.9,2.4,1.4,3.8,1.4c0.2,0,0.5,0,0.7-0.1c1.6-0.2,3-1.1,3.9-2.4
		c1.4-2.1,3-4.1,4.6-6c1.1-0.2,2.2-0.3,3.3-0.5c5-0.8,9.9-1.9,14.8-3.5c1-0.3,2-0.7,3-1s1.7-0.6,2.5-1c7.8-3.1,13.3-6.9,15.1-10.6
		c2,0.1,4,0.6,5.8,1.5c2.9,1.5,5.1,4.1,6,7.2C167.3,89.2,164,95.3,158,98z"/>
	<path class="st0" d="M283,34.4c2.8,2.9,7.5,2.9,10.4,0l8.2-8.2c2.9-2.9,2.9-7.5,0-10.4l-0.1-0.1c-2.9-2.9-7.5-2.9-10.4,0l-8.2,8.2
		c-2.9,2.9-2.9,7.5,0,10.4L283,34.4z"/>
</g>
</svg>
