<?xml version="1.0" encoding="utf-8"?>
<!-- Generator: Adobe Illustrator 24.2.0, SVG Export Plug-In . SVG Version: 6.00 Build 0)  -->
<svg version="1.1" id="Layer_1" xmlns="http://www.w3.org/2000/svg" xmlns:xlink="http://www.w3.org/1999/xlink" x="0px" y="0px"
	 viewBox="0 0 40 35" style="enable-background:new 0 0 40 35;" xml:space="preserve">
<style type="text/css">
	.st0{fill:#FFFFFF;}
	.st1{fill:#FFCE32;}
</style>
<g>
	<path class="st0" d="M38,2h-5v5c0,1.1-0.9,2-2,2H9C7.9,9,7,8.1,7,7V2H2C0.9,2,0,2.9,0,4v29c0,1.1,0.9,2,2,2h36c1.1,0,2-0.9,2-2V4
		C40,2.9,39.1,2,38,2z M7,13c1.1,0,2,0.9,2,2s-0.9,2-2,2s-2-0.9-2-2S5.9,13,7,13z M7,31c-1.1,0-2-0.9-2-2s0.9-2,2-2s2,0.9,2,2
		S8.1,31,7,31z M7,24c-1.1,0-2-0.9-2-2c0-1.1,0.9-2,2-2s2,0.9,2,2C9,23.1,8.1,24,7,24z M35,31H11v-4h24V31z M35,24H11v-4h24V24z
		 M35,17H11v-4h24V17z"/>
	<path class="st1" d="M9,8h22c0.6,0,1-0.4,1-1V2V1c0-0.6-0.4-1-1-1H9C8.7,0,8.5,0.1,8.3,0.3S8,0.7,8,1v1v5c0,0.3,0.1,0.5,0.3,0.7
		S8.7,8,9,8z"/>
</g>
</svg>
